<?xml version="1.0" encoding="UTF-8"?>
<svg xmlns="http://www.w3.org/2000/svg" xmlns:xlink="http://www.w3.org/1999/xlink" width="600" height="400" viewBox="0 0 600 400">
<rect x="-60" y="-40" width="720" height="480" fill="rgb(0%, 0%, 0%)" fill-opacity="1"/>
<path fill="none" stroke-width="1" stroke-linecap="butt" stroke-linejoin="miter" stroke="rgb(100%, 100%, 100%)" stroke-opacity="0.16" stroke-miterlimit="1.154701" d="M 193.613281 384 L 193.613281 16 "/>
<path fill="none" stroke-width="1" stroke-linecap="butt" stroke-linejoin="miter" stroke="rgb(100%, 100%, 100%)" stroke-opacity="0.16" stroke-miterlimit="1.154701" d="M 297.375 384 L 297.375 16 "/>
<path fill="none" stroke-width="1" stroke-linecap="butt" stroke-linejoin="miter" stroke="rgb(100%, 100%, 100%)" stroke-opacity="0.16" stroke-miterlimit="1.154701" d="M 401.132812 384 L 401.132812 16 "/>
<path fill="none" stroke-width="1" stroke-linecap="butt" stroke-linejoin="miter" stroke="rgb(100%, 100%, 100%)" stroke-opacity="0.16" stroke-miterlimit="1.154701" d="M 129 314.433594 L 471 314.433594 "/>
<path fill="none" stroke-width="1" stroke-linecap="butt" stroke-linejoin="miter" stroke="rgb(100%, 100%, 100%)" stroke-opacity="0.16" stroke-miterlimit="1.154701" d="M 129 210.644531 L 471 210.644531 "/>
<path fill="none" stroke-width="1" stroke-linecap="butt" stroke-linejoin="miter" stroke="rgb(100%, 100%, 100%)" stroke-opacity="0.16" stroke-miterlimit="1.154701" d="M 129 106.855469 L 471 106.855469 "/>
<path fill-rule="evenodd" fill="rgb(7.721994%, 8.283127%, 10.245727%)" fill-opacity="1" d="M 401.132812 270.570312 L 193.613281 270.570312 L 297.375 90.800781 Z M 401.132812 270.570312 "/>
<path fill-rule="evenodd" fill="rgb(8.877376%, 12.465603%, 20.189062%)" fill-opacity="1" d="M 375.195312 210.644531 L 297.375 288.488281 L 219.554688 210.644531 L 297.375 132.804688 Z M 375.195312 210.644531 "/>
<path fill-rule="evenodd" fill="rgb(7.905833%, 16.859801%, 30.657741%)" fill-opacity="1" d="M 350.332031 193.433594 L 330.105469 255.707031 L 264.644531 255.707031 L 244.414062 193.433594 L 297.375 154.945312 Z M 350.332031 193.433594 "/>
<path fill-rule="evenodd" fill="rgb(6.219697%, 21.443145%, 40.366915%)" fill-opacity="1" d="M 334.058594 189.460938 L 334.058594 231.832031 L 297.375 253.015625 L 260.6875 231.832031 L 260.6875 189.460938 L 297.375 168.273438 Z M 334.058594 189.460938 "/>
<path fill-rule="evenodd" fill="rgb(5.964242%, 26.17045%, 49.19247%)" fill-opacity="1" d="M 323.65625 189.679688 L 330.144531 218.128906 L 311.957031 240.941406 L 282.789062 240.941406 L 264.601562 218.128906 L 271.09375 189.679688 L 297.375 177.019531 Z M 323.65625 189.679688 "/>
<path fill-rule="evenodd" fill="rgb(5.723532%, 31.040078%, 58.113265%)" fill-opacity="1" d="M 316.828125 191.183594 L 324.886719 210.644531 L 316.828125 230.105469 L 297.375 238.167969 L 277.917969 230.105469 L 269.859375 210.644531 L 277.917969 191.183594 L 297.375 183.125 Z M 316.828125 191.183594 "/>
<path fill-rule="evenodd" fill="rgb(4.89157%, 36.044446%, 67.290419%)" fill-opacity="1" d="M 312.195312 192.976562 L 320.082031 206.640625 L 317.34375 222.175781 L 305.261719 232.320312 L 289.488281 232.320312 L 277.40625 222.175781 L 274.667969 206.640625 L 282.550781 192.976562 L 297.375 187.582031 Z M 312.195312 192.976562 "/>
<path fill-rule="evenodd" fill="rgb(3.069567%, 41.171825%, 76.70399%)" fill-opacity="1" d="M 308.945312 194.714844 L 316.097656 204.558594 L 316.097656 216.730469 L 308.945312 226.578125 L 297.375 230.339844 L 285.800781 226.578125 L 278.648438 216.730469 L 278.648438 204.558594 L 285.800781 194.714844 L 297.375 190.953125 Z M 308.945312 194.714844 "/>
<path fill-rule="evenodd" fill="rgb(0.369371%, 46.415228%, 86.319071%)" fill-opacity="1" d="M 306.597656 196.285156 L 312.894531 203.554688 L 314.265625 213.074219 L 310.269531 221.824219 L 302.179688 227.023438 L 292.566406 227.023438 L 284.476562 221.824219 L 280.484375 213.074219 L 281.851562 203.554688 L 288.148438 196.285156 L 297.375 193.574219 Z M 306.597656 196.285156 "/>
<path fill-rule="evenodd" fill="rgb(11.136588%, 51.72227%, 94.285053%)" fill-opacity="1" d="M 304.863281 197.671875 L 310.34375 203.15625 L 312.351562 210.644531 L 310.34375 218.136719 L 304.863281 223.617188 L 297.375 225.625 L 289.886719 223.617188 L 284.402344 218.136719 L 282.398438 210.644531 L 284.402344 203.15625 L 289.886719 197.671875 L 297.375 195.664062 Z M 304.863281 197.671875 "/>
<path fill-rule="evenodd" fill="rgb(38.665223%, 56.946963%, 90.184689%)" fill-opacity="1" d="M 303.546875 198.882812 L 308.304688 203.097656 L 310.558594 209.042969 L 309.792969 215.355469 L 306.179688 220.589844 L 300.550781 223.546875 L 294.195312 223.546875 L 288.566406 220.589844 L 284.953125 215.355469 L 284.1875 209.042969 L 286.441406 203.097656 L 291.203125 198.882812 L 297.375 197.359375 Z M 303.546875 198.882812 "/>
<path fill-rule="evenodd" fill="rgb(59.535134%, 62.441981%, 73.269027%)" fill-opacity="1" d="M 302.53125 199.933594 L 306.664062 203.234375 L 308.960938 208 L 308.960938 213.289062 L 306.664062 218.058594 L 302.53125 221.355469 L 297.375 222.535156 L 292.21875 221.355469 L 288.082031 218.058594 L 285.785156 213.289062 L 285.785156 208 L 288.082031 203.234375 L 292.21875 199.933594 L 297.375 198.757812 Z M 302.53125 199.933594 "/>
<path fill-rule="evenodd" fill="rgb(73.038775%, 68.028712%, 55.470538%)" fill-opacity="1" d="M 301.734375 200.851562 L 305.335938 203.472656 L 307.566406 207.332031 L 308.03125 211.765625 L 306.652344 216.003906 L 303.671875 219.316406 L 299.601562 221.128906 L 295.144531 221.128906 L 291.074219 219.316406 L 288.09375 216.003906 L 286.714844 211.765625 L 287.183594 207.332031 L 289.410156 203.472656 L 293.015625 200.851562 L 297.375 199.925781 Z M 301.734375 200.851562 "/>
<path fill-rule="evenodd" fill="rgb(83.568877%, 73.575127%, 37.492606%)" fill-opacity="1" d="M 301.097656 201.65625 L 304.253906 203.765625 L 306.359375 206.921875 L 307.101562 210.644531 L 306.359375 214.367188 L 304.253906 217.527344 L 301.097656 219.636719 L 297.375 220.375 L 293.652344 219.636719 L 290.496094 217.527344 L 288.386719 214.367188 L 287.644531 210.644531 L 288.386719 206.921875 L 290.496094 203.765625 L 293.652344 201.65625 L 297.375 200.914062 Z M 301.097656 201.65625 "/>
<path fill-rule="evenodd" fill="rgb(92.018265%, 79.326886%, 16.788828%)" fill-opacity="1" d="M 300.582031 202.359375 L 303.359375 204.078125 L 305.324219 206.683594 L 306.21875 209.824219 L 305.917969 213.078125 L 304.460938 216 L 302.050781 218.199219 L 299.003906 219.378906 L 295.742188 219.378906 L 292.699219 218.199219 L 290.285156 216 L 288.832031 213.078125 L 288.53125 209.824219 L 289.421875 206.683594 L 291.390625 204.078125 L 294.164062 202.359375 L 297.375 201.761719 Z M 300.582031 202.359375 "/>
<path fill-rule="evenodd" fill="rgb(98.196197%, 85.161209%, 28.159758%)" fill-opacity="1" d="M 300.160156 202.984375 L 302.613281 204.398438 L 304.433594 206.566406 L 305.402344 209.230469 L 305.402344 212.0625 L 304.433594 214.722656 L 302.613281 216.890625 L 300.160156 218.308594 L 297.375 218.800781 L 294.585938 218.308594 L 292.132812 216.890625 L 290.3125 214.722656 L 289.34375 212.0625 L 289.34375 209.230469 L 290.3125 206.566406 L 292.132812 204.398438 L 294.585938 202.984375 L 297.375 202.492188 Z M 300.160156 202.984375 "/>
<path fill-rule="evenodd" fill="rgb(99.972194%, 91.241688%, 65.428621%)" fill-opacity="1" d="M 299.816406 203.535156 L 301.992188 204.710938 L 303.667969 206.53125 L 304.660156 208.800781 L 304.863281 211.265625 L 304.257812 213.664062 L 302.902344 215.738281 L 300.953125 217.257812 L 298.609375 218.0625 L 296.136719 218.0625 L 293.796875 217.257812 L 291.84375 215.738281 L 290.488281 213.664062 L 289.882812 211.265625 L 290.085938 208.800781 L 291.082031 206.53125 L 292.757812 204.710938 L 294.933594 203.535156 L 297.375 203.125 Z M 299.816406 203.535156 "/>
<path fill-rule="evenodd" fill="rgb(98.715001%, 97.679001%, 95.310998%)" fill-opacity="1" d="M 299.523438 204.023438 L 301.464844 205.011719 L 303.003906 206.554688 L 303.992188 208.492188 L 304.335938 210.644531 L 303.992188 212.796875 L 303.003906 214.738281 L 301.464844 216.277344 L 299.523438 217.265625 L 297.375 217.609375 L 295.222656 217.265625 L 293.28125 216.277344 L 291.742188 214.738281 L 290.753906 212.796875 L 290.414062 210.644531 L 290.753906 208.492188 L 291.742188 206.554688 L 293.28125 205.011719 L 295.222656 204.023438 L 297.375 203.683594 Z M 299.523438 204.023438 "/>
<path fill-rule="evenodd" fill="rgb(7.721994%, 8.283127%, 10.245727%)" fill-opacity="1" d="M 324.332031 79.433594 L 270.417969 79.433594 L 297.375 32.726562 Z M 324.332031 79.433594 "/>
<path fill-rule="evenodd" fill="rgb(8.877376%, 12.465603%, 20.189062%)" fill-opacity="1" d="M 369.570312 72.714844 L 347.5625 94.734375 L 325.550781 72.714844 L 347.5625 50.699219 Z M 369.570312 72.714844 "/>
<path fill-rule="evenodd" fill="rgb(7.905833%, 16.859801%, 30.657741%)" fill-opacity="1" d="M 408.789062 92.648438 L 402.257812 112.75 L 381.132812 112.75 L 374.601562 92.648438 L 391.695312 80.226562 Z M 408.789062 92.648438 "/>
<path fill-rule="evenodd" fill="rgb(6.219697%, 21.443145%, 40.366915%)" fill-opacity="1" d="M 437.929688 129.46875 L 437.929688 145.039062 L 424.453125 152.824219 L 410.972656 145.039062 L 410.972656 129.46875 L 424.453125 121.6875 Z M 437.929688 129.46875 "/>
<path fill-rule="evenodd" fill="rgb(5.964242%, 26.17045%, 49.19247%)" fill-opacity="1" d="M 452.765625 176.476562 L 455.453125 188.253906 L 447.921875 197.703125 L 435.84375 197.703125 L 428.3125 188.253906 L 431 176.476562 L 441.882812 171.230469 Z M 452.765625 176.476562 "/>
<path fill-rule="evenodd" fill="rgb(5.723532%, 31.040078%, 58.113265%)" fill-opacity="1" d="M 450.867188 227.144531 L 454.589844 236.132812 L 450.867188 245.121094 L 441.882812 248.84375 L 432.898438 245.121094 L 429.175781 236.132812 L 432.898438 227.144531 L 441.882812 223.421875 Z M 450.867188 227.144531 "/>
<path fill-rule="evenodd" fill="rgb(4.89157%, 36.044446%, 67.290419%)" fill-opacity="1" d="M 432.015625 275.019531 L 436.039062 281.992188 L 434.640625 289.921875 L 428.476562 295.09375 L 420.429688 295.09375 L 414.265625 289.921875 L 412.867188 281.992188 L 416.890625 275.019531 L 424.453125 272.265625 Z M 432.015625 275.019531 "/>
<path fill-rule="evenodd" fill="rgb(3.069567%, 41.171825%, 76.70399%)" fill-opacity="1" d="M 398.164062 314.179688 L 402.160156 319.683594 L 402.160156 326.488281 L 398.164062 331.992188 L 391.695312 334.09375 L 385.226562 331.992188 L 381.230469 326.488281 L 381.230469 319.683594 L 385.226562 314.179688 L 391.695312 312.078125 Z M 398.164062 314.179688 "/>
<path fill-rule="evenodd" fill="rgb(0.369371%, 46.415228%, 86.319071%)" fill-opacity="1" d="M 353.171875 339.84375 L 357 344.261719 L 357.832031 350.050781 L 355.402344 355.371094 L 350.484375 358.53125 L 344.636719 358.53125 L 339.71875 355.371094 L 337.289062 350.050781 L 338.121094 344.261719 L 341.953125 339.84375 L 347.5625 338.195312 Z M 353.171875 339.84375 "/>
<path fill-rule="evenodd" fill="rgb(11.136588%, 51.72227%, 94.285053%)" fill-opacity="1" d="M 302.296875 348.898438 L 305.898438 352.503906 L 307.21875 357.425781 L 305.898438 362.347656 L 302.296875 365.953125 L 297.375 367.273438 L 292.453125 365.953125 L 288.847656 362.347656 L 287.53125 357.425781 L 288.847656 352.503906 L 292.453125 348.898438 L 297.375 347.578125 Z M 302.296875 348.898438 "/>
<path fill-rule="evenodd" fill="rgb(38.665223%, 56.946963%, 90.184689%)" fill-opacity="1" d="M 251.546875 340.261719 L 254.910156 343.242188 L 256.503906 347.441406 L 255.960938 351.902344 L 253.410156 355.601562 L 249.433594 357.691406 L 244.941406 357.691406 L 240.960938 355.601562 L 238.410156 351.902344 L 237.871094 347.441406 L 239.460938 343.242188 L 242.824219 340.261719 L 247.1875 339.1875 Z M 251.546875 340.261719 "/>
<path fill-rule="evenodd" fill="rgb(59.535134%, 62.441981%, 73.269027%)" fill-opacity="1" d="M 206.949219 314.988281 L 210.078125 317.480469 L 211.8125 321.085938 L 211.8125 325.085938 L 210.078125 328.691406 L 206.949219 331.183594 L 203.050781 332.074219 L 199.152344 331.183594 L 196.027344 328.691406 L 194.292969 325.085938 L 194.292969 321.085938 L 196.027344 317.480469 L 199.152344 314.988281 L 203.050781 314.097656 Z M 206.949219 314.988281 "/>
<path fill-rule="evenodd" fill="rgb(73.038775%, 68.028712%, 55.470538%)" fill-opacity="1" d="M 173.804688 276.148438 L 176.710938 278.257812 L 178.503906 281.367188 L 178.878906 284.9375 L 177.769531 288.355469 L 175.371094 291.023438 L 172.089844 292.484375 L 168.5 292.484375 L 165.21875 291.023438 L 162.816406 288.355469 L 161.707031 284.9375 L 162.082031 281.367188 L 163.878906 278.257812 L 166.78125 276.148438 L 170.292969 275.398438 Z M 173.804688 276.148438 "/>
<path fill-rule="evenodd" fill="rgb(83.568877%, 73.575127%, 37.492606%)" fill-opacity="1" d="M 156.046875 228.445312 L 158.746094 230.25 L 160.550781 232.949219 L 161.183594 236.132812 L 160.550781 239.316406 L 158.746094 242.019531 L 156.046875 243.820312 L 152.863281 244.457031 L 149.679688 243.820312 L 146.980469 242.019531 L 145.179688 239.316406 L 144.546875 236.132812 L 145.179688 232.949219 L 146.980469 230.25 L 149.679688 228.445312 L 152.863281 227.8125 Z M 156.046875 228.445312 "/>
<path fill-rule="evenodd" fill="rgb(92.018265%, 79.326886%, 16.788828%)" fill-opacity="1" d="M 155.769531 177.660156 L 158.28125 179.214844 L 160.058594 181.574219 L 160.867188 184.414062 L 160.59375 187.355469 L 159.277344 190 L 157.097656 191.992188 L 154.339844 193.058594 L 151.386719 193.058594 L 148.632812 191.992188 L 146.449219 190 L 145.132812 187.355469 L 144.863281 184.414062 L 145.671875 181.574219 L 147.449219 179.214844 L 149.960938 177.660156 L 152.863281 177.117188 Z M 155.769531 177.660156 "/>
<path fill-rule="evenodd" fill="rgb(98.196197%, 85.161209%, 28.159758%)" fill-opacity="1" d="M 172.957031 129.941406 L 175.296875 131.292969 L 177.035156 133.363281 L 177.957031 135.902344 L 177.957031 138.605469 L 177.035156 141.148438 L 175.296875 143.21875 L 172.957031 144.570312 L 170.292969 145.039062 L 167.632812 144.570312 L 165.292969 143.21875 L 163.554688 141.148438 L 162.632812 138.605469 L 162.632812 135.902344 L 163.554688 133.363281 L 165.292969 131.292969 L 167.632812 129.941406 L 170.292969 129.46875 Z M 172.957031 129.941406 "/>
<path fill-rule="evenodd" fill="rgb(99.972194%, 91.241688%, 65.428621%)" fill-opacity="1" d="M 205.503906 91.0625 L 207.6875 92.246094 L 209.371094 94.074219 L 210.371094 96.351562 L 210.574219 98.828125 L 209.964844 101.238281 L 208.605469 103.320312 L 206.644531 104.847656 L 204.292969 105.652344 L 201.808594 105.652344 L 199.457031 104.847656 L 197.496094 103.320312 L 196.136719 101.238281 L 195.527344 98.828125 L 195.734375 96.351562 L 196.730469 94.074219 L 198.414062 92.246094 L 200.601562 91.0625 L 203.050781 90.652344 Z M 205.503906 91.0625 "/>
<path fill-rule="evenodd" fill="rgb(98.715001%, 97.679001%, 95.310998%)" fill-opacity="1" d="M 249.453125 65.738281 L 251.5 66.777344 L 253.121094 68.402344 L 254.164062 70.449219 L 254.523438 72.714844 L 254.164062 74.984375 L 253.121094 77.03125 L 251.5 78.652344 L 249.453125 79.695312 L 247.1875 80.054688 L 244.917969 79.695312 L 242.875 78.652344 L 241.25 77.03125 L 240.207031 74.984375 L 239.847656 72.714844 L 240.207031 70.449219 L 241.25 68.402344 L 242.875 66.777344 L 244.917969 65.738281 L 247.1875 65.378906 Z M 249.453125 65.738281 "/>
</svg>
