<?xml version="1.0" encoding="UTF-8"?>
<svg xmlns="http://www.w3.org/2000/svg" xmlns:xlink="http://www.w3.org/1999/xlink" width="450pt" height="300pt" viewBox="0 0 450 300" version="1.1">
<g id="surface1-f706cc5b">
<path style="fill:none;stroke-width:1;stroke-linecap:butt;stroke-linejoin:miter;stroke:rgb(55.000001%,55.000001%,55.000001%);stroke-opacity:0.16;stroke-miterlimit:2;" d="M 24.890625 384 L 24.890625 16 " transform="matrix(0.75,0,0,0.75,0,0)"/>
<path style="fill:none;stroke-width:1;stroke-linecap:butt;stroke-linejoin:miter;stroke:rgb(55.000001%,55.000001%,55.000001%);stroke-opacity:0.16;stroke-miterlimit:2;" d="M 137.755208 384 L 137.755208 16 " transform="matrix(0.75,0,0,0.75,0,0)"/>
<path style="fill:none;stroke-width:1;stroke-linecap:butt;stroke-linejoin:miter;stroke:rgb(55.000001%,55.000001%,55.000001%);stroke-opacity:0.16;stroke-miterlimit:2;" d="M 250.619792 384 L 250.619792 16 " transform="matrix(0.75,0,0,0.75,0,0)"/>
<path style="fill:none;stroke-width:1;stroke-linecap:butt;stroke-linejoin:miter;stroke:rgb(55.000001%,55.000001%,55.000001%);stroke-opacity:0.16;stroke-miterlimit:2;" d="M 363.489583 384 L 363.489583 16 " transform="matrix(0.75,0,0,0.75,0,0)"/>
<path style="fill:none;stroke-width:1;stroke-linecap:butt;stroke-linejoin:miter;stroke:rgb(55.000001%,55.000001%,55.000001%);stroke-opacity:0.16;stroke-miterlimit:2;" d="M 476.354167 384 L 476.354167 16 " transform="matrix(0.75,0,0,0.75,0,0)"/>
<path style="fill:none;stroke-width:1;stroke-linecap:butt;stroke-linejoin:miter;stroke:rgb(55.000001%,55.000001%,55.000001%);stroke-opacity:0.16;stroke-miterlimit:2;" d="M 16 266.21875 L 584 266.21875 " transform="matrix(0.75,0,0,0.75,0,0)"/>
<path style="fill:none;stroke-width:1;stroke-linecap:butt;stroke-linejoin:miter;stroke:rgb(55.000001%,55.000001%,55.000001%);stroke-opacity:0.16;stroke-miterlimit:2;" d="M 16 145.958333 L 584 145.958333 " transform="matrix(0.75,0,0,0.75,0,0)"/>
<path style="fill:none;stroke-width:1;stroke-linecap:butt;stroke-linejoin:miter;stroke:rgb(55.000001%,55.000001%,55.000001%);stroke-opacity:0.16;stroke-miterlimit:2;" d="M 16 25.697917 L 584 25.697917 " transform="matrix(0.75,0,0,0.75,0,0)"/>
<path style="fill:none;stroke-width:1.5;stroke-linecap:butt;stroke-linejoin:miter;stroke:rgb(45.09804%,45.09804%,45.09804%);stroke-opacity:1;stroke-miterlimit:2;" d="M 41.817708 145.958333 L 549.71875 145.958333 " transform="matrix(0.75,0,0,0.75,0,0)"/>
<path style="fill:none;stroke-width:1.5;stroke-linecap:butt;stroke-linejoin:miter;stroke:rgb(99.985999%,100%,100%);stroke-opacity:1;stroke-miterlimit:2;" d="M 41.817708 64.807292 L 41.817708 145.958333 " transform="matrix(0.75,0,0,0.75,0,0)"/>
<path style="fill:none;stroke-width:1.5;stroke-linecap:butt;stroke-linejoin:miter;stroke:rgb(95.783496%,98.369002%,99.662%);stroke-opacity:1;stroke-miterlimit:2;" d="M 58.75 79.932292 L 58.75 145.958333 " transform="matrix(0.75,0,0,0.75,0,0)"/>
<path style="fill:none;stroke-width:1.5;stroke-linecap:butt;stroke-linejoin:miter;stroke:rgb(91.526997%,96.732998%,99.318999%);stroke-opacity:1;stroke-miterlimit:2;" d="M 75.677083 99.125 L 75.677083 145.958333 " transform="matrix(0.75,0,0,0.75,0,0)"/>
<path style="fill:none;stroke-width:1.5;stroke-linecap:butt;stroke-linejoin:miter;stroke:rgb(87.467504%,95.013499%,99.115503%);stroke-opacity:1;stroke-miterlimit:2;" d="M 92.609375 120.25 L 92.609375 145.958333 " transform="matrix(0.75,0,0,0.75,0,0)"/>
<path style="fill:none;stroke-width:1.5;stroke-linecap:butt;stroke-linejoin:miter;stroke:rgb(84.044999%,93.074%,99.291998%);stroke-opacity:1;stroke-miterlimit:2;" d="M 109.536458 141.229167 L 109.536458 145.958333 " transform="matrix(0.75,0,0,0.75,0,0)"/>
<path style="fill:none;stroke-width:1.5;stroke-linecap:butt;stroke-linejoin:miter;stroke:rgb(80.559003%,91.145003%,99.458504%);stroke-opacity:1;stroke-miterlimit:2;" d="M 126.46875 160.255208 L 126.46875 145.958333 " transform="matrix(0.75,0,0,0.75,0,0)"/>
<path style="fill:none;stroke-width:1.5;stroke-linecap:butt;stroke-linejoin:miter;stroke:rgb(77.811998%,89.024001%,99.64%);stroke-opacity:1;stroke-miterlimit:2;" d="M 143.395833 175.875 L 143.395833 145.958333 " transform="matrix(0.75,0,0,0.75,0,0)"/>
<path style="fill:none;stroke-width:1.5;stroke-linecap:butt;stroke-linejoin:miter;stroke:rgb(75.692499%,86.746001%,99.830997%);stroke-opacity:1;stroke-miterlimit:2;" d="M 160.328125 187.114583 L 160.328125 145.958333 " transform="matrix(0.75,0,0,0.75,0,0)"/>
<path style="fill:none;stroke-width:1.5;stroke-linecap:butt;stroke-linejoin:miter;stroke:rgb(73.532999%,84.478998%,100%);stroke-opacity:1;stroke-miterlimit:2;" d="M 177.260417 193.479167 L 177.260417 145.958333 " transform="matrix(0.75,0,0,0.75,0,0)"/>
<path style="fill:none;stroke-width:1.5;stroke-linecap:butt;stroke-linejoin:miter;stroke:rgb(72.817004%,81.900501%,99.803501%);stroke-opacity:1;stroke-miterlimit:2;" d="M 194.1875 194.963542 L 194.1875 145.958333 " transform="matrix(0.75,0,0,0.75,0,0)"/>
<path style="fill:none;stroke-width:1.5;stroke-linecap:butt;stroke-linejoin:miter;stroke:rgb(72.391999%,79.253%,99.501997%);stroke-opacity:1;stroke-miterlimit:2;" d="M 211.119792 191.989583 L 211.119792 145.958333 " transform="matrix(0.75,0,0,0.75,0,0)"/>
<path style="fill:none;stroke-width:1.5;stroke-linecap:butt;stroke-linejoin:miter;stroke:rgb(72.090501%,76.5715%,99.109995%);stroke-opacity:1;stroke-miterlimit:2;" d="M 228.046875 185.328125 L 228.046875 145.958333 " transform="matrix(0.75,0,0,0.75,0,0)"/>
<path style="fill:none;stroke-width:1.5;stroke-linecap:butt;stroke-linejoin:miter;stroke:rgb(73.351997%,73.544002%,97.868001%);stroke-opacity:1;stroke-miterlimit:2;" d="M 244.979167 175.973958 L 244.979167 145.958333 " transform="matrix(0.75,0,0,0.75,0,0)"/>
<path style="fill:none;stroke-width:1.5;stroke-linecap:butt;stroke-linejoin:miter;stroke:rgb(74.491501%,70.490503%,96.626496%);stroke-opacity:1;stroke-miterlimit:2;" d="M 261.90625 165.046875 L 261.90625 145.958333 " transform="matrix(0.75,0,0,0.75,0,0)"/>
<path style="fill:none;stroke-width:1.5;stroke-linecap:butt;stroke-linejoin:miter;stroke:rgb(76.032001%,67.300999%,94.919002%);stroke-opacity:1;stroke-miterlimit:2;" d="M 278.838542 153.6875 L 278.838542 145.958333 " transform="matrix(0.75,0,0,0.75,0,0)"/>
<path style="fill:none;stroke-width:1.5;stroke-linecap:butt;stroke-linejoin:miter;stroke:rgb(78.268003%,63.874495%,92.405999%);stroke-opacity:1;stroke-miterlimit:2;" d="M 295.765625 142.9375 L 295.765625 145.958333 " transform="matrix(0.75,0,0,0.75,0,0)"/>
<path style="fill:none;stroke-width:1.5;stroke-linecap:butt;stroke-linejoin:miter;stroke:rgb(80.282003%,60.373002%,89.907002%);stroke-opacity:1;stroke-miterlimit:2;" d="M 312.697917 133.661458 L 312.697917 145.958333 " transform="matrix(0.75,0,0,0.75,0,0)"/>
<path style="fill:none;stroke-width:1.5;stroke-linecap:butt;stroke-linejoin:miter;stroke:rgb(82.587004%,56.704497%,86.488998%);stroke-opacity:1;stroke-miterlimit:2;" d="M 329.625 126.515625 L 329.625 145.958333 " transform="matrix(0.75,0,0,0.75,0,0)"/>
<path style="fill:none;stroke-width:1.5;stroke-linecap:butt;stroke-linejoin:miter;stroke:rgb(84.890002%,52.875%,82.568997%);stroke-opacity:1;stroke-miterlimit:2;" d="M 346.557292 121.880208 L 346.557292 145.958333 " transform="matrix(0.75,0,0,0.75,0,0)"/>
<path style="fill:none;stroke-width:1.5;stroke-linecap:butt;stroke-linejoin:miter;stroke:rgb(86.921%,48.8875%,78.688002%);stroke-opacity:1;stroke-miterlimit:2;" d="M 363.489583 119.875 L 363.489583 145.958333 " transform="matrix(0.75,0,0,0.75,0,0)"/>
<path style="fill:none;stroke-width:1.5;stroke-linecap:butt;stroke-linejoin:miter;stroke:rgb(88.793999%,44.891%,73.522002%);stroke-opacity:1;stroke-miterlimit:2;" d="M 380.416667 120.375 L 380.416667 145.958333 " transform="matrix(0.75,0,0,0.75,0,0)"/>
<path style="fill:none;stroke-width:1.5;stroke-linecap:butt;stroke-linejoin:miter;stroke:rgb(90.379%,40.700501%,68.289%);stroke-opacity:1;stroke-miterlimit:2;" d="M 397.348958 123.0625 L 397.348958 145.958333 " transform="matrix(0.75,0,0,0.75,0,0)"/>
<path style="fill:none;stroke-width:1.5;stroke-linecap:butt;stroke-linejoin:miter;stroke:rgb(91.606998%,36.353001%,62.897003%);stroke-opacity:1;stroke-miterlimit:2;" d="M 414.276042 127.447917 L 414.276042 145.958333 " transform="matrix(0.75,0,0,0.75,0,0)"/>
<path style="fill:none;stroke-width:1.5;stroke-linecap:butt;stroke-linejoin:miter;stroke:rgb(92.173499%,32.309002%,56.560498%);stroke-opacity:1;stroke-miterlimit:2;" d="M 431.208333 132.958333 L 431.208333 145.958333 " transform="matrix(0.75,0,0,0.75,0,0)"/>
<path style="fill:none;stroke-width:1.5;stroke-linecap:butt;stroke-linejoin:miter;stroke:rgb(92.483002%,27.941999%,50.321001%);stroke-opacity:1;stroke-miterlimit:2;" d="M 448.135417 138.979167 L 448.135417 145.958333 " transform="matrix(0.75,0,0,0.75,0,0)"/>
<path style="fill:none;stroke-width:1.5;stroke-linecap:butt;stroke-linejoin:miter;stroke:rgb(92.125499%,23.851001%,43.774%);stroke-opacity:1;stroke-miterlimit:2;" d="M 465.067708 144.932292 L 465.067708 145.958333 " transform="matrix(0.75,0,0,0.75,0,0)"/>
<path style="fill:none;stroke-width:1.5;stroke-linecap:butt;stroke-linejoin:miter;stroke:rgb(91.035998%,20.379999%,36.829999%);stroke-opacity:1;stroke-miterlimit:2;" d="M 481.994792 150.302083 L 481.994792 145.958333 " transform="matrix(0.75,0,0,0.75,0,0)"/>
<path style="fill:none;stroke-width:1.5;stroke-linecap:butt;stroke-linejoin:miter;stroke:rgb(89.749503%,16.575%,29.9485%);stroke-opacity:1;stroke-miterlimit:2;" d="M 498.927083 154.6875 L 498.927083 145.958333 " transform="matrix(0.75,0,0,0.75,0,0)"/>
<path style="fill:none;stroke-width:1.5;stroke-linecap:butt;stroke-linejoin:miter;stroke:rgb(87.387002%,14.707001%,22.719%);stroke-opacity:1;stroke-miterlimit:2;" d="M 515.859375 157.807292 L 515.859375 145.958333 " transform="matrix(0.75,0,0,0.75,0,0)"/>
<path style="fill:none;stroke-width:1.5;stroke-linecap:butt;stroke-linejoin:miter;stroke:rgb(84.548497%,13.780001%,15.013501%);stroke-opacity:1;stroke-miterlimit:2;" d="M 532.786458 159.541667 L 532.786458 145.958333 " transform="matrix(0.75,0,0,0.75,0,0)"/>
<path style="fill:none;stroke-width:1.5;stroke-linecap:butt;stroke-linejoin:miter;stroke:rgb(81.589001%,12.954%,5.5606%);stroke-opacity:1;stroke-miterlimit:2;" d="M 549.71875 159.890625 L 549.71875 145.958333 " transform="matrix(0.75,0,0,0.75,0,0)"/>
<path style=" stroke:none;fill-rule:nonzero;fill:rgb(99.985999%,100%,100%);fill-opacity:1;" d="M 33.742188 48.605469 C 33.742188 45.433594 28.984375 45.433594 28.984375 48.605469 C 28.984375 51.777344 33.742188 51.777344 33.742188 48.605469 Z M 33.742188 48.605469 "/>
<path style=" stroke:none;fill-rule:nonzero;fill:rgb(98.010498%,98.525%,91.366994%);fill-opacity:1;" d="M 46.441406 59.949219 C 46.441406 56.777344 41.683594 56.777344 41.683594 59.949219 C 41.683594 63.121094 46.441406 63.121094 46.441406 59.949219 Z M 46.441406 59.949219 "/>
<path style=" stroke:none;fill-rule:nonzero;fill:rgb(95.822001%,97.051001%,82.765001%);fill-opacity:1;" d="M 59.136719 74.34375 C 59.136719 71.171875 54.378906 71.171875 54.378906 74.34375 C 54.378906 77.515625 59.136719 77.515625 59.136719 74.34375 Z M 59.136719 74.34375 "/>
<path style=" stroke:none;fill-rule:nonzero;fill:rgb(93.882%,95.381999%,75.119996%);fill-opacity:1;" d="M 71.835938 90.1875 C 71.835938 87.011719 67.078125 87.011719 67.078125 90.1875 C 67.078125 93.359375 71.835938 93.359375 71.835938 90.1875 Z M 71.835938 90.1875 "/>
<path style=" stroke:none;fill-rule:nonzero;fill:rgb(93.037999%,93.184%,70.008999%);fill-opacity:1;" d="M 84.53125 105.921875 C 84.53125 102.75 79.773438 102.75 79.773438 105.921875 C 79.773438 109.09375 84.53125 109.09375 84.53125 105.921875 Z M 84.53125 105.921875 "/>
<path style=" stroke:none;fill-rule:nonzero;fill:rgb(92.105997%,91.000998%,64.910996%);fill-opacity:1;" d="M 97.230469 120.191406 C 97.230469 117.019531 92.472656 117.019531 92.472656 120.191406 C 92.472656 123.363281 97.230469 123.363281 97.230469 120.191406 Z M 97.230469 120.191406 "/>
<path style=" stroke:none;fill-rule:nonzero;fill:rgb(91.451001%,88.699001%,60.189998%);fill-opacity:1;" d="M 109.929688 131.90625 C 109.929688 128.734375 105.167969 128.734375 105.167969 131.90625 C 105.167969 135.078125 109.929688 135.078125 109.929688 131.90625 Z M 109.929688 131.90625 "/>
<path style=" stroke:none;fill-rule:nonzero;fill:rgb(91.0115%,86.298001%,55.785%);fill-opacity:1;" d="M 122.625 140.335938 C 122.625 137.164062 117.867188 137.164062 117.867188 140.335938 C 117.867188 143.507812 122.625 143.507812 122.625 140.335938 Z M 122.625 140.335938 "/>
<path style=" stroke:none;fill-rule:nonzero;fill:rgb(90.486997%,83.91%,51.379001%);fill-opacity:1;" d="M 135.324219 145.109375 C 135.324219 141.933594 130.5625 141.933594 130.5625 145.109375 C 130.5625 148.28125 135.324219 148.28125 135.324219 145.109375 Z M 135.324219 145.109375 "/>
<path style=" stroke:none;fill-rule:nonzero;fill:rgb(90.244997%,81.388998%,47.403002%);fill-opacity:1;" d="M 148.019531 146.222656 C 148.019531 143.050781 143.261719 143.050781 143.261719 146.222656 C 143.261719 149.394531 148.019531 149.394531 148.019531 146.222656 Z M 148.019531 146.222656 "/>
<path style=" stroke:none;fill-rule:nonzero;fill:rgb(90.000999%,78.843999%,43.516999%);fill-opacity:1;" d="M 160.71875 143.992188 C 160.71875 140.820312 155.957031 140.820312 155.957031 143.992188 C 155.957031 147.167969 160.71875 147.167969 160.71875 143.992188 Z M 160.71875 143.992188 "/>
<path style=" stroke:none;fill-rule:nonzero;fill:rgb(89.706004%,76.292503%,39.658499%);fill-opacity:1;" d="M 173.414062 138.996094 C 173.414062 135.824219 168.65625 135.824219 168.65625 138.996094 C 168.65625 142.167969 173.414062 142.167969 173.414062 138.996094 Z M 173.414062 138.996094 "/>
<path style=" stroke:none;fill-rule:nonzero;fill:rgb(89.617002%,73.618001%,36.271%);fill-opacity:1;" d="M 186.113281 131.980469 C 186.113281 128.808594 181.355469 128.808594 181.355469 131.980469 C 181.355469 135.152344 186.113281 135.152344 186.113281 131.980469 Z M 186.113281 131.980469 "/>
<path style=" stroke:none;fill-rule:nonzero;fill:rgb(89.453%,70.9445%,32.859001%);fill-opacity:1;" d="M 198.808594 123.785156 C 198.808594 120.613281 194.050781 120.613281 194.050781 123.785156 C 194.050781 126.957031 198.808594 126.957031 198.808594 123.785156 Z M 198.808594 123.785156 "/>
<path style=" stroke:none;fill-rule:nonzero;fill:rgb(89.293998%,68.225998%,29.622999%);fill-opacity:1;" d="M 211.507812 115.265625 C 211.507812 112.09375 206.75 112.09375 206.75 115.265625 C 206.75 118.4375 211.507812 118.4375 211.507812 115.265625 Z M 211.507812 115.265625 "/>
<path style=" stroke:none;fill-rule:nonzero;fill:rgb(89.201498%,65.428996%,26.732498%);fill-opacity:1;" d="M 224.203125 107.203125 C 224.203125 104.027344 219.445312 104.027344 219.445312 107.203125 C 219.445312 110.375 224.203125 110.375 224.203125 107.203125 Z M 224.203125 107.203125 "/>
<path style=" stroke:none;fill-rule:nonzero;fill:rgb(89.043999%,62.616998%,23.799001%);fill-opacity:1;" d="M 236.902344 100.246094 C 236.902344 97.074219 232.144531 97.074219 232.144531 100.246094 C 232.144531 103.421875 236.902344 103.421875 236.902344 100.246094 Z M 236.902344 100.246094 "/>
<path style=" stroke:none;fill-rule:nonzero;fill:rgb(88.907003%,59.732497%,21.242%);fill-opacity:1;" d="M 249.601562 94.886719 C 249.601562 91.714844 244.839844 91.714844 244.839844 94.886719 C 244.839844 98.058594 249.601562 98.058594 249.601562 94.886719 Z M 249.601562 94.886719 "/>
<path style=" stroke:none;fill-rule:nonzero;fill:rgb(88.757998%,56.787997%,18.897%);fill-opacity:1;" d="M 262.296875 91.410156 C 262.296875 88.238281 257.539062 88.238281 257.539062 91.410156 C 257.539062 94.582031 262.296875 94.582031 262.296875 91.410156 Z M 262.296875 91.410156 "/>
<path style=" stroke:none;fill-rule:nonzero;fill:rgb(88.5535%,53.8055%,16.5085%);fill-opacity:1;" d="M 274.996094 89.90625 C 274.996094 86.730469 270.234375 86.730469 270.234375 89.90625 C 270.234375 93.078125 274.996094 93.078125 274.996094 89.90625 Z M 274.996094 89.90625 "/>
<path style=" stroke:none;fill-rule:nonzero;fill:rgb(88.350999%,50.726002%,14.783999%);fill-opacity:1;" d="M 287.691406 90.28125 C 287.691406 87.109375 282.933594 87.109375 282.933594 90.28125 C 282.933594 93.453125 287.691406 93.453125 287.691406 90.28125 Z M 287.691406 90.28125 "/>
<path style=" stroke:none;fill-rule:nonzero;fill:rgb(88.103998%,47.576499%,13.126999%);fill-opacity:1;" d="M 300.390625 92.296875 C 300.390625 89.125 295.632812 89.125 295.632812 92.296875 C 295.632812 95.46875 300.390625 95.46875 300.390625 92.296875 Z M 300.390625 92.296875 "/>
<path style=" stroke:none;fill-rule:nonzero;fill:rgb(87.809998%,44.343999%,11.614%);fill-opacity:1;" d="M 313.085938 95.585938 C 313.085938 92.414062 308.328125 92.414062 308.328125 95.585938 C 308.328125 98.757812 313.085938 98.757812 313.085938 95.585938 Z M 313.085938 95.585938 "/>
<path style=" stroke:none;fill-rule:nonzero;fill:rgb(87.469%,40.989%,10.813%);fill-opacity:1;" d="M 325.785156 99.71875 C 325.785156 96.546875 321.027344 96.546875 321.027344 99.71875 C 321.027344 102.890625 325.785156 102.890625 325.785156 99.71875 Z M 325.785156 99.71875 "/>
<path style=" stroke:none;fill-rule:nonzero;fill:rgb(87.086999%,37.496001%,10.045%);fill-opacity:1;" d="M 338.480469 104.234375 C 338.480469 101.0625 333.722656 101.0625 333.722656 104.234375 C 333.722656 107.410156 338.480469 107.410156 338.480469 104.234375 Z M 338.480469 104.234375 "/>
<path style=" stroke:none;fill-rule:nonzero;fill:rgb(86.637998%,33.833%,9.6806%);fill-opacity:1;" d="M 351.179688 108.699219 C 351.179688 105.527344 346.421875 105.527344 346.421875 108.699219 C 346.421875 111.875 351.179688 111.875 351.179688 108.699219 Z M 351.179688 108.699219 "/>
<path style=" stroke:none;fill-rule:nonzero;fill:rgb(86.119998%,29.936001%,9.7711%);fill-opacity:1;" d="M 363.878906 112.726562 C 363.878906 109.554688 359.117188 109.554688 359.117188 112.726562 C 359.117188 115.902344 363.878906 115.902344 363.878906 112.726562 Z M 363.878906 112.726562 "/>
<path style=" stroke:none;fill-rule:nonzero;fill:rgb(85.5685%,25.661498%,9.835%);fill-opacity:1;" d="M 376.574219 116.015625 C 376.574219 112.84375 371.816406 112.84375 371.816406 116.015625 C 371.816406 119.1875 376.574219 119.1875 376.574219 116.015625 Z M 376.574219 116.015625 "/>
<path style=" stroke:none;fill-rule:nonzero;fill:rgb(84.902%,20.886999%,10.351%);fill-opacity:1;" d="M 389.273438 118.355469 C 389.273438 115.183594 384.511719 115.183594 384.511719 118.355469 C 384.511719 121.53125 389.273438 121.53125 389.273438 118.355469 Z M 389.273438 118.355469 "/>
<path style=" stroke:none;fill-rule:nonzero;fill:rgb(84.176499%,15.0555%,10.9485%);fill-opacity:1;" d="M 401.96875 119.65625 C 401.96875 116.484375 397.210938 116.484375 397.210938 119.65625 C 397.210938 122.828125 401.96875 122.828125 401.96875 119.65625 Z M 401.96875 119.65625 "/>
<path style=" stroke:none;fill-rule:nonzero;fill:rgb(83.421999%,5.9213%,11.447%);fill-opacity:1;" d="M 414.667969 119.917969 C 414.667969 116.746094 409.910156 116.746094 409.910156 119.917969 C 409.910156 123.089844 414.667969 123.089844 414.667969 119.917969 Z M 414.667969 119.917969 "/>
<path style="fill:none;stroke-width:1.5;stroke-linecap:butt;stroke-linejoin:miter;stroke:rgb(45.09804%,45.09804%,45.09804%);stroke-opacity:1;stroke-miterlimit:2;" d="M 50.28125 145.958333 L 558.182292 145.958333 " transform="matrix(0.75,0,0,0.75,0,0)"/>
<path style="fill:none;stroke-width:0.5;stroke-linecap:butt;stroke-linejoin:miter;stroke:rgb(45.09804%,45.09804%,45.09804%);stroke-opacity:1;stroke-miterlimit:2;" d="M 50.28125 322.411458 L 50.28125 145.958333 " transform="matrix(0.75,0,0,0.75,0,0)"/>
<path style="fill:none;stroke-width:0.5;stroke-linecap:butt;stroke-linejoin:miter;stroke:rgb(45.09804%,45.09804%,45.09804%);stroke-opacity:1;stroke-miterlimit:2;" d="M 67.213542 213.640625 L 67.213542 145.958333 " transform="matrix(0.75,0,0,0.75,0,0)"/>
<path style="fill:none;stroke-width:0.5;stroke-linecap:butt;stroke-linejoin:miter;stroke:rgb(45.09804%,45.09804%,45.09804%);stroke-opacity:1;stroke-miterlimit:2;" d="M 84.140625 172.458333 L 84.140625 145.958333 " transform="matrix(0.75,0,0,0.75,0,0)"/>
<path style="fill:none;stroke-width:0.5;stroke-linecap:butt;stroke-linejoin:miter;stroke:rgb(45.09804%,45.09804%,45.09804%);stroke-opacity:1;stroke-miterlimit:2;" d="M 101.072917 149.083333 L 101.072917 145.958333 " transform="matrix(0.75,0,0,0.75,0,0)"/>
<path style="fill:none;stroke-width:0.5;stroke-linecap:butt;stroke-linejoin:miter;stroke:rgb(45.09804%,45.09804%,45.09804%);stroke-opacity:1;stroke-miterlimit:2;" d="M 118.005208 133.760417 L 118.005208 145.958333 " transform="matrix(0.75,0,0,0.75,0,0)"/>
<path style="fill:none;stroke-width:0.5;stroke-linecap:butt;stroke-linejoin:miter;stroke:rgb(45.09804%,45.09804%,45.09804%);stroke-opacity:1;stroke-miterlimit:2;" d="M 134.932292 123.333333 L 134.932292 145.958333 " transform="matrix(0.75,0,0,0.75,0,0)"/>
<path style="fill:none;stroke-width:0.5;stroke-linecap:butt;stroke-linejoin:miter;stroke:rgb(45.09804%,45.09804%,45.09804%);stroke-opacity:1;stroke-miterlimit:2;" d="M 151.864583 116.46875 L 151.864583 145.958333 " transform="matrix(0.75,0,0,0.75,0,0)"/>
<path style="fill:none;stroke-width:0.5;stroke-linecap:butt;stroke-linejoin:miter;stroke:rgb(45.09804%,45.09804%,45.09804%);stroke-opacity:1;stroke-miterlimit:2;" d="M 168.791667 112.447917 L 168.791667 145.958333 " transform="matrix(0.75,0,0,0.75,0,0)"/>
<path style="fill:none;stroke-width:0.5;stroke-linecap:butt;stroke-linejoin:miter;stroke:rgb(45.09804%,45.09804%,45.09804%);stroke-opacity:1;stroke-miterlimit:2;" d="M 185.723958 110.791667 L 185.723958 145.958333 " transform="matrix(0.75,0,0,0.75,0,0)"/>
<path style="fill:none;stroke-width:0.5;stroke-linecap:butt;stroke-linejoin:miter;stroke:rgb(45.09804%,45.09804%,45.09804%);stroke-opacity:1;stroke-miterlimit:2;" d="M 202.651042 111.083333 L 202.651042 145.958333 " transform="matrix(0.75,0,0,0.75,0,0)"/>
<path style="fill:none;stroke-width:0.5;stroke-linecap:butt;stroke-linejoin:miter;stroke:rgb(45.09804%,45.09804%,45.09804%);stroke-opacity:1;stroke-miterlimit:2;" d="M 219.583333 112.932292 L 219.583333 145.958333 " transform="matrix(0.75,0,0,0.75,0,0)"/>
<path style="fill:none;stroke-width:0.5;stroke-linecap:butt;stroke-linejoin:miter;stroke:rgb(45.09804%,45.09804%,45.09804%);stroke-opacity:1;stroke-miterlimit:2;" d="M 236.510417 115.947917 L 236.510417 145.958333 " transform="matrix(0.75,0,0,0.75,0,0)"/>
<path style="fill:none;stroke-width:0.5;stroke-linecap:butt;stroke-linejoin:miter;stroke:rgb(45.09804%,45.09804%,45.09804%);stroke-opacity:1;stroke-miterlimit:2;" d="M 253.442708 119.734375 L 253.442708 145.958333 " transform="matrix(0.75,0,0,0.75,0,0)"/>
<path style="fill:none;stroke-width:0.5;stroke-linecap:butt;stroke-linejoin:miter;stroke:rgb(45.09804%,45.09804%,45.09804%);stroke-opacity:1;stroke-miterlimit:2;" d="M 270.375 123.90625 L 270.375 145.958333 " transform="matrix(0.75,0,0,0.75,0,0)"/>
<path style="fill:none;stroke-width:0.5;stroke-linecap:butt;stroke-linejoin:miter;stroke:rgb(45.09804%,45.09804%,45.09804%);stroke-opacity:1;stroke-miterlimit:2;" d="M 287.302083 128.109375 L 287.302083 145.958333 " transform="matrix(0.75,0,0,0.75,0,0)"/>
<path style="fill:none;stroke-width:0.5;stroke-linecap:butt;stroke-linejoin:miter;stroke:rgb(45.09804%,45.09804%,45.09804%);stroke-opacity:1;stroke-miterlimit:2;" d="M 304.234375 132.020833 L 304.234375 145.958333 " transform="matrix(0.75,0,0,0.75,0,0)"/>
<path style="fill:none;stroke-width:0.5;stroke-linecap:butt;stroke-linejoin:miter;stroke:rgb(45.09804%,45.09804%,45.09804%);stroke-opacity:1;stroke-miterlimit:2;" d="M 321.161458 135.380208 L 321.161458 145.958333 " transform="matrix(0.75,0,0,0.75,0,0)"/>
<path style="fill:none;stroke-width:0.5;stroke-linecap:butt;stroke-linejoin:miter;stroke:rgb(45.09804%,45.09804%,45.09804%);stroke-opacity:1;stroke-miterlimit:2;" d="M 338.09375 137.994792 L 338.09375 145.958333 " transform="matrix(0.75,0,0,0.75,0,0)"/>
<path style="fill:none;stroke-width:0.5;stroke-linecap:butt;stroke-linejoin:miter;stroke:rgb(45.09804%,45.09804%,45.09804%);stroke-opacity:1;stroke-miterlimit:2;" d="M 355.020833 139.729167 L 355.020833 145.958333 " transform="matrix(0.75,0,0,0.75,0,0)"/>
<path style="fill:none;stroke-width:0.5;stroke-linecap:butt;stroke-linejoin:miter;stroke:rgb(45.09804%,45.09804%,45.09804%);stroke-opacity:1;stroke-miterlimit:2;" d="M 371.953125 140.546875 L 371.953125 145.958333 " transform="matrix(0.75,0,0,0.75,0,0)"/>
<path style="fill:none;stroke-width:0.5;stroke-linecap:butt;stroke-linejoin:miter;stroke:rgb(45.09804%,45.09804%,45.09804%);stroke-opacity:1;stroke-miterlimit:2;" d="M 388.880208 140.46875 L 388.880208 145.958333 " transform="matrix(0.75,0,0,0.75,0,0)"/>
<path style="fill:none;stroke-width:0.5;stroke-linecap:butt;stroke-linejoin:miter;stroke:rgb(45.09804%,45.09804%,45.09804%);stroke-opacity:1;stroke-miterlimit:2;" d="M 405.8125 139.583333 L 405.8125 145.958333 " transform="matrix(0.75,0,0,0.75,0,0)"/>
<path style="fill:none;stroke-width:0.5;stroke-linecap:butt;stroke-linejoin:miter;stroke:rgb(45.09804%,45.09804%,45.09804%);stroke-opacity:1;stroke-miterlimit:2;" d="M 422.744792 138.03125 L 422.744792 145.958333 " transform="matrix(0.75,0,0,0.75,0,0)"/>
<path style="fill:none;stroke-width:0.5;stroke-linecap:butt;stroke-linejoin:miter;stroke:rgb(45.09804%,45.09804%,45.09804%);stroke-opacity:1;stroke-miterlimit:2;" d="M 439.671875 136.005208 L 439.671875 145.958333 " transform="matrix(0.75,0,0,0.75,0,0)"/>
<path style="fill:none;stroke-width:0.5;stroke-linecap:butt;stroke-linejoin:miter;stroke:rgb(45.09804%,45.09804%,45.09804%);stroke-opacity:1;stroke-miterlimit:2;" d="M 456.604167 133.703125 L 456.604167 145.958333 " transform="matrix(0.75,0,0,0.75,0,0)"/>
<path style="fill:none;stroke-width:0.5;stroke-linecap:butt;stroke-linejoin:miter;stroke:rgb(45.09804%,45.09804%,45.09804%);stroke-opacity:1;stroke-miterlimit:2;" d="M 473.53125 131.338542 L 473.53125 145.958333 " transform="matrix(0.75,0,0,0.75,0,0)"/>
<path style="fill:none;stroke-width:0.5;stroke-linecap:butt;stroke-linejoin:miter;stroke:rgb(45.09804%,45.09804%,45.09804%);stroke-opacity:1;stroke-miterlimit:2;" d="M 490.463542 129.114583 L 490.463542 145.958333 " transform="matrix(0.75,0,0,0.75,0,0)"/>
<path style="fill:none;stroke-width:0.5;stroke-linecap:butt;stroke-linejoin:miter;stroke:rgb(45.09804%,45.09804%,45.09804%);stroke-opacity:1;stroke-miterlimit:2;" d="M 507.390625 127.208333 L 507.390625 145.958333 " transform="matrix(0.75,0,0,0.75,0,0)"/>
<path style="fill:none;stroke-width:0.5;stroke-linecap:butt;stroke-linejoin:miter;stroke:rgb(45.09804%,45.09804%,45.09804%);stroke-opacity:1;stroke-miterlimit:2;" d="M 524.322917 125.75 L 524.322917 145.958333 " transform="matrix(0.75,0,0,0.75,0,0)"/>
<path style="fill:none;stroke-width:0.5;stroke-linecap:butt;stroke-linejoin:miter;stroke:rgb(45.09804%,45.09804%,45.09804%);stroke-opacity:1;stroke-miterlimit:2;" d="M 541.25 124.838542 L 541.25 145.958333 " transform="matrix(0.75,0,0,0.75,0,0)"/>
<path style="fill:none;stroke-width:0.5;stroke-linecap:butt;stroke-linejoin:miter;stroke:rgb(45.09804%,45.09804%,45.09804%);stroke-opacity:1;stroke-miterlimit:2;" d="M 558.182292 124.510417 L 558.182292 145.958333 " transform="matrix(0.75,0,0,0.75,0,0)"/>
<path style="fill:none;stroke-width:1;stroke-linecap:butt;stroke-linejoin:miter;stroke:rgb(0%,0%,0%);stroke-opacity:1;stroke-miterlimit:2;" d="M 53.442708 325.567708 L 53.442708 319.25 L 47.125 319.25 L 47.125 325.567708 Z M 53.442708 325.567708 " transform="matrix(0.75,0,0,0.75,0,0)"/>
<path style="fill:none;stroke-width:1;stroke-linecap:butt;stroke-linejoin:miter;stroke:rgb(0%,0%,0%);stroke-opacity:1;stroke-miterlimit:2;" d="M 70.369792 216.796875 L 70.369792 210.479167 L 64.057292 210.479167 L 64.057292 216.796875 Z M 70.369792 216.796875 " transform="matrix(0.75,0,0,0.75,0,0)"/>
<path style="fill:none;stroke-width:1;stroke-linecap:butt;stroke-linejoin:miter;stroke:rgb(0%,0%,0%);stroke-opacity:1;stroke-miterlimit:2;" d="M 87.302083 175.614583 L 87.302083 169.296875 L 80.984375 169.296875 L 80.984375 175.614583 Z M 87.302083 175.614583 " transform="matrix(0.75,0,0,0.75,0,0)"/>
<path style="fill:none;stroke-width:1;stroke-linecap:butt;stroke-linejoin:miter;stroke:rgb(0%,0%,0%);stroke-opacity:1;stroke-miterlimit:2;" d="M 104.229167 152.239583 L 104.229167 145.927083 L 97.916667 145.927083 L 97.916667 152.239583 Z M 104.229167 152.239583 " transform="matrix(0.75,0,0,0.75,0,0)"/>
<path style="fill:none;stroke-width:1;stroke-linecap:butt;stroke-linejoin:miter;stroke:rgb(0%,0%,0%);stroke-opacity:1;stroke-miterlimit:2;" d="M 121.161458 136.916667 L 121.161458 130.604167 L 114.84375 130.604167 L 114.84375 136.916667 Z M 121.161458 136.916667 " transform="matrix(0.75,0,0,0.75,0,0)"/>
<path style="fill:none;stroke-width:1;stroke-linecap:butt;stroke-linejoin:miter;stroke:rgb(0%,0%,0%);stroke-opacity:1;stroke-miterlimit:2;" d="M 138.088542 126.489583 L 138.088542 120.177083 L 131.776042 120.177083 L 131.776042 126.489583 Z M 138.088542 126.489583 " transform="matrix(0.75,0,0,0.75,0,0)"/>
<path style="fill:none;stroke-width:1;stroke-linecap:butt;stroke-linejoin:miter;stroke:rgb(0%,0%,0%);stroke-opacity:1;stroke-miterlimit:2;" d="M 155.020833 119.625 L 155.020833 113.3125 L 148.703125 113.3125 L 148.703125 119.625 Z M 155.020833 119.625 " transform="matrix(0.75,0,0,0.75,0,0)"/>
<path style="fill:none;stroke-width:1;stroke-linecap:butt;stroke-linejoin:miter;stroke:rgb(0%,0%,0%);stroke-opacity:1;stroke-miterlimit:2;" d="M 171.947917 115.609375 L 171.947917 109.291667 L 165.635417 109.291667 L 165.635417 115.609375 Z M 171.947917 115.609375 " transform="matrix(0.75,0,0,0.75,0,0)"/>
<path style="fill:none;stroke-width:1;stroke-linecap:butt;stroke-linejoin:miter;stroke:rgb(0%,0%,0%);stroke-opacity:1;stroke-miterlimit:2;" d="M 188.880208 113.947917 L 188.880208 107.635417 L 182.567708 107.635417 L 182.567708 113.947917 Z M 188.880208 113.947917 " transform="matrix(0.75,0,0,0.75,0,0)"/>
<path style="fill:none;stroke-width:1;stroke-linecap:butt;stroke-linejoin:miter;stroke:rgb(0%,0%,0%);stroke-opacity:1;stroke-miterlimit:2;" d="M 205.8125 114.239583 L 205.8125 107.921875 L 199.494792 107.921875 L 199.494792 114.239583 Z M 205.8125 114.239583 " transform="matrix(0.75,0,0,0.75,0,0)"/>
<path style="fill:none;stroke-width:1;stroke-linecap:butt;stroke-linejoin:miter;stroke:rgb(0%,0%,0%);stroke-opacity:1;stroke-miterlimit:2;" d="M 222.739583 116.088542 L 222.739583 109.776042 L 216.427083 109.776042 L 216.427083 116.088542 Z M 222.739583 116.088542 " transform="matrix(0.75,0,0,0.75,0,0)"/>
<path style="fill:none;stroke-width:1;stroke-linecap:butt;stroke-linejoin:miter;stroke:rgb(0%,0%,0%);stroke-opacity:1;stroke-miterlimit:2;" d="M 239.671875 119.104167 L 239.671875 112.786458 L 233.354167 112.786458 L 233.354167 119.104167 Z M 239.671875 119.104167 " transform="matrix(0.75,0,0,0.75,0,0)"/>
<path style="fill:none;stroke-width:1;stroke-linecap:butt;stroke-linejoin:miter;stroke:rgb(0%,0%,0%);stroke-opacity:1;stroke-miterlimit:2;" d="M 256.598958 122.890625 L 256.598958 116.572917 L 250.286458 116.572917 L 250.286458 122.890625 Z M 256.598958 122.890625 " transform="matrix(0.75,0,0,0.75,0,0)"/>
<path style="fill:none;stroke-width:1;stroke-linecap:butt;stroke-linejoin:miter;stroke:rgb(0%,0%,0%);stroke-opacity:1;stroke-miterlimit:2;" d="M 273.53125 127.0625 L 273.53125 120.75 L 267.213542 120.75 L 267.213542 127.0625 Z M 273.53125 127.0625 " transform="matrix(0.75,0,0,0.75,0,0)"/>
<path style="fill:none;stroke-width:1;stroke-linecap:butt;stroke-linejoin:miter;stroke:rgb(0%,0%,0%);stroke-opacity:1;stroke-miterlimit:2;" d="M 290.458333 131.265625 L 290.458333 124.953125 L 284.145833 124.953125 L 284.145833 131.265625 Z M 290.458333 131.265625 " transform="matrix(0.75,0,0,0.75,0,0)"/>
<path style="fill:none;stroke-width:1;stroke-linecap:butt;stroke-linejoin:miter;stroke:rgb(0%,0%,0%);stroke-opacity:1;stroke-miterlimit:2;" d="M 307.390625 135.177083 L 307.390625 128.864583 L 301.072917 128.864583 L 301.072917 135.177083 Z M 307.390625 135.177083 " transform="matrix(0.75,0,0,0.75,0,0)"/>
<path style="fill:none;stroke-width:1;stroke-linecap:butt;stroke-linejoin:miter;stroke:rgb(0%,0%,0%);stroke-opacity:1;stroke-miterlimit:2;" d="M 324.317708 138.536458 L 324.317708 132.223958 L 318.005208 132.223958 L 318.005208 138.536458 Z M 324.317708 138.536458 " transform="matrix(0.75,0,0,0.75,0,0)"/>
<path style="fill:none;stroke-width:1;stroke-linecap:butt;stroke-linejoin:miter;stroke:rgb(0%,0%,0%);stroke-opacity:1;stroke-miterlimit:2;" d="M 341.25 141.151042 L 341.25 134.833333 L 334.9375 134.833333 L 334.9375 141.151042 Z M 341.25 141.151042 " transform="matrix(0.75,0,0,0.75,0,0)"/>
<path style="fill:none;stroke-width:1;stroke-linecap:butt;stroke-linejoin:miter;stroke:rgb(0%,0%,0%);stroke-opacity:1;stroke-miterlimit:2;" d="M 358.177083 142.885417 L 358.177083 136.572917 L 351.864583 136.572917 L 351.864583 142.885417 Z M 358.177083 142.885417 " transform="matrix(0.75,0,0,0.75,0,0)"/>
<path style="fill:none;stroke-width:1;stroke-linecap:butt;stroke-linejoin:miter;stroke:rgb(0%,0%,0%);stroke-opacity:1;stroke-miterlimit:2;" d="M 375.109375 143.703125 L 375.109375 137.390625 L 368.796875 137.390625 L 368.796875 143.703125 Z M 375.109375 143.703125 " transform="matrix(0.75,0,0,0.75,0,0)"/>
<path style="fill:none;stroke-width:1;stroke-linecap:butt;stroke-linejoin:miter;stroke:rgb(0%,0%,0%);stroke-opacity:1;stroke-miterlimit:2;" d="M 392.041667 143.625 L 392.041667 137.3125 L 385.723958 137.3125 L 385.723958 143.625 Z M 392.041667 143.625 " transform="matrix(0.75,0,0,0.75,0,0)"/>
<path style="fill:none;stroke-width:1;stroke-linecap:butt;stroke-linejoin:miter;stroke:rgb(0%,0%,0%);stroke-opacity:1;stroke-miterlimit:2;" d="M 408.96875 142.739583 L 408.96875 136.427083 L 402.65625 136.427083 L 402.65625 142.739583 Z M 408.96875 142.739583 " transform="matrix(0.75,0,0,0.75,0,0)"/>
<path style="fill:none;stroke-width:1;stroke-linecap:butt;stroke-linejoin:miter;stroke:rgb(0%,0%,0%);stroke-opacity:1;stroke-miterlimit:2;" d="M 425.901042 141.192708 L 425.901042 134.875 L 419.583333 134.875 L 419.583333 141.192708 Z M 425.901042 141.192708 " transform="matrix(0.75,0,0,0.75,0,0)"/>
<path style="fill:none;stroke-width:1;stroke-linecap:butt;stroke-linejoin:miter;stroke:rgb(0%,0%,0%);stroke-opacity:1;stroke-miterlimit:2;" d="M 442.828125 139.161458 L 442.828125 132.848958 L 436.515625 132.848958 L 436.515625 139.161458 Z M 442.828125 139.161458 " transform="matrix(0.75,0,0,0.75,0,0)"/>
<path style="fill:none;stroke-width:1;stroke-linecap:butt;stroke-linejoin:miter;stroke:rgb(0%,0%,0%);stroke-opacity:1;stroke-miterlimit:2;" d="M 459.760417 136.859375 L 459.760417 130.546875 L 453.442708 130.546875 L 453.442708 136.859375 Z M 459.760417 136.859375 " transform="matrix(0.75,0,0,0.75,0,0)"/>
<path style="fill:none;stroke-width:1;stroke-linecap:butt;stroke-linejoin:miter;stroke:rgb(0%,0%,0%);stroke-opacity:1;stroke-miterlimit:2;" d="M 476.6875 134.5 L 476.6875 128.182292 L 470.375 128.182292 L 470.375 134.5 Z M 476.6875 134.5 " transform="matrix(0.75,0,0,0.75,0,0)"/>
<path style="fill:none;stroke-width:1;stroke-linecap:butt;stroke-linejoin:miter;stroke:rgb(0%,0%,0%);stroke-opacity:1;stroke-miterlimit:2;" d="M 493.619792 132.276042 L 493.619792 125.958333 L 487.307292 125.958333 L 487.307292 132.276042 Z M 493.619792 132.276042 " transform="matrix(0.75,0,0,0.75,0,0)"/>
<path style="fill:none;stroke-width:1;stroke-linecap:butt;stroke-linejoin:miter;stroke:rgb(0%,0%,0%);stroke-opacity:1;stroke-miterlimit:2;" d="M 510.546875 130.364583 L 510.546875 124.052083 L 504.234375 124.052083 L 504.234375 130.364583 Z M 510.546875 130.364583 " transform="matrix(0.75,0,0,0.75,0,0)"/>
<path style="fill:none;stroke-width:1;stroke-linecap:butt;stroke-linejoin:miter;stroke:rgb(0%,0%,0%);stroke-opacity:1;stroke-miterlimit:2;" d="M 527.479167 128.90625 L 527.479167 122.59375 L 521.166667 122.59375 L 521.166667 128.90625 Z M 527.479167 128.90625 " transform="matrix(0.75,0,0,0.75,0,0)"/>
<path style="fill:none;stroke-width:1;stroke-linecap:butt;stroke-linejoin:miter;stroke:rgb(0%,0%,0%);stroke-opacity:1;stroke-miterlimit:2;" d="M 544.411458 127.994792 L 544.411458 121.682292 L 538.09375 121.682292 L 538.09375 127.994792 Z M 544.411458 127.994792 " transform="matrix(0.75,0,0,0.75,0,0)"/>
<path style="fill:none;stroke-width:1;stroke-linecap:butt;stroke-linejoin:miter;stroke:rgb(0%,0%,0%);stroke-opacity:1;stroke-miterlimit:2;" d="M 561.338542 127.666667 L 561.338542 121.354167 L 555.026042 121.354167 L 555.026042 127.666667 Z M 561.338542 127.666667 " transform="matrix(0.75,0,0,0.75,0,0)"/>
<path style="fill:none;stroke-width:1.5;stroke-linecap:butt;stroke-linejoin:miter;stroke:rgb(45.09804%,45.09804%,45.09804%);stroke-opacity:1;stroke-miterlimit:2;" d="M 81.322917 145.958333 L 476.354167 145.958333 " transform="matrix(0.75,0,0,0.75,0,0)"/>
<path style="fill:none;stroke-width:1.5;stroke-linecap:butt;stroke-linejoin:miter;stroke:rgb(62.352943%,0.392157%,38.431373%);stroke-opacity:1;stroke-dasharray:4.5,4.5;stroke-miterlimit:2;" d="M 81.322917 273.197917 L 81.322917 145.958333 " transform="matrix(0.75,0,0,0.75,0,0)"/>
<path style="fill:none;stroke-width:1.5;stroke-linecap:butt;stroke-linejoin:miter;stroke:rgb(57.14286%,46.890756%,60.896361%);stroke-opacity:1;stroke-dasharray:4.5,4.5;stroke-miterlimit:2;" d="M 137.755208 254.057292 L 137.755208 145.958333 " transform="matrix(0.75,0,0,0.75,0,0)"/>
<path style="fill:none;stroke-width:1.5;stroke-linecap:butt;stroke-linejoin:miter;stroke:rgb(7.394958%,84.705883%,81.064427%);stroke-opacity:1;stroke-dasharray:4.5,4.5;stroke-miterlimit:2;" d="M 194.1875 92.046875 L 194.1875 145.958333 " transform="matrix(0.75,0,0,0.75,0,0)"/>
<path style="fill:none;stroke-width:1.5;stroke-linecap:butt;stroke-linejoin:miter;stroke:rgb(14.789917%,39.495799%,92.717087%);stroke-opacity:1;stroke-dasharray:4.5,4.5;stroke-miterlimit:2;" d="M 250.619792 156.546875 L 250.619792 145.958333 " transform="matrix(0.75,0,0,0.75,0,0)"/>
<path style="fill:none;stroke-width:1.5;stroke-linecap:butt;stroke-linejoin:miter;stroke:rgb(28.57143%,74.285716%,98.095238%);stroke-opacity:1;stroke-dasharray:4.5,4.5;stroke-miterlimit:2;" d="M 307.052083 204.072917 L 307.052083 145.958333 " transform="matrix(0.75,0,0,0.75,0,0)"/>
<path style="fill:none;stroke-width:1.5;stroke-linecap:butt;stroke-linejoin:miter;stroke:rgb(69.411767%,10.308123%,25.602242%);stroke-opacity:1;stroke-dasharray:4.5,4.5;stroke-miterlimit:2;" d="M 363.489583 32.729167 L 363.489583 145.958333 " transform="matrix(0.75,0,0,0.75,0,0)"/>
<path style="fill:none;stroke-width:1.5;stroke-linecap:butt;stroke-linejoin:miter;stroke:rgb(93.501401%,18.711485%,21.40056%);stroke-opacity:1;stroke-dasharray:4.5,4.5;stroke-miterlimit:2;" d="M 419.921875 166.213542 L 419.921875 145.958333 " transform="matrix(0.75,0,0,0.75,0,0)"/>
<path style="fill:none;stroke-width:1.5;stroke-linecap:butt;stroke-linejoin:miter;stroke:rgb(100%,76.47059%,23.137255%);stroke-opacity:1;stroke-dasharray:4.5,4.5;stroke-miterlimit:2;" d="M 476.354167 367.270833 L 476.354167 145.958333 " transform="matrix(0.75,0,0,0.75,0,0)"/>
<path style="fill-rule:nonzero;fill:rgb(62.352943%,0.392157%,38.431373%);fill-opacity:0.65;stroke-width:1.5;stroke-linecap:butt;stroke-linejoin:miter;stroke:rgb(62.352943%,0.392157%,38.431373%);stroke-opacity:1;stroke-miterlimit:2;" d="M 87.588542 273.197917 C 87.588542 269.739583 84.78125 266.932292 81.322917 266.932292 C 77.859375 266.932292 75.057292 269.739583 75.057292 273.197917 C 75.057292 276.661458 77.859375 279.46875 81.322917 279.46875 C 84.78125 279.46875 87.588542 276.661458 87.588542 273.197917 Z M 87.588542 273.197917 " transform="matrix(0.75,0,0,0.75,0,0)"/>
<path style="fill-rule:nonzero;fill:rgb(57.14286%,46.890756%,60.896361%);fill-opacity:0.65;stroke-width:1.5;stroke-linecap:butt;stroke-linejoin:miter;stroke:rgb(57.14286%,46.890756%,60.896361%);stroke-opacity:1;stroke-miterlimit:2;" d="M 143.421875 259.723958 L 143.421875 248.385417 L 132.083333 248.385417 L 132.083333 259.723958 Z M 143.421875 259.723958 " transform="matrix(0.75,0,0,0.75,0,0)"/>
<path style="fill-rule:nonzero;fill:rgb(7.394958%,84.705883%,81.064427%);fill-opacity:0.65;stroke-width:1.5;stroke-linecap:butt;stroke-linejoin:miter;stroke:rgb(7.394958%,84.705883%,81.064427%);stroke-opacity:1;stroke-miterlimit:2;" d="M 194.1875 83.052083 L 187.4375 96.546875 L 200.9375 96.546875 Z M 194.1875 83.052083 " transform="matrix(0.75,0,0,0.75,0,0)"/>
<path style="fill-rule:nonzero;fill:rgb(14.789917%,39.495799%,92.717087%);fill-opacity:0.65;stroke-width:1.5;stroke-linecap:butt;stroke-linejoin:miter;stroke:rgb(14.789917%,39.495799%,92.717087%);stroke-opacity:1;stroke-miterlimit:2;" d="M 250.619792 165.1875 L 257.098958 152.229167 L 244.140625 152.229167 Z M 250.619792 165.1875 " transform="matrix(0.75,0,0,0.75,0,0)"/>
<path style="fill-rule:nonzero;fill:rgb(28.57143%,74.285716%,98.095238%);fill-opacity:0.65;stroke-width:1.5;stroke-linecap:butt;stroke-linejoin:miter;stroke:rgb(28.57143%,74.285716%,98.095238%);stroke-opacity:1;stroke-miterlimit:2;" d="M 313.197917 204.072917 L 307.052083 197.932292 L 300.911458 204.072917 L 307.052083 210.213542 Z M 313.197917 204.072917 " transform="matrix(0.75,0,0,0.75,0,0)"/>
<path style="fill-rule:nonzero;fill:rgb(69.411767%,10.308123%,25.602242%);fill-opacity:0.65;stroke-width:1.5;stroke-linecap:butt;stroke-linejoin:miter;stroke:rgb(69.411767%,10.308123%,25.602242%);stroke-opacity:1;stroke-miterlimit:2;" d="M 363.489583 28.052083 L 359.041667 31.28125 L 360.739583 36.510417 L 366.234375 36.510417 L 367.932292 31.28125 Z M 363.489583 28.052083 " transform="matrix(0.75,0,0,0.75,0,0)"/>
<path style="fill-rule:nonzero;fill:rgb(93.501401%,18.711485%,21.40056%);fill-opacity:0.65;stroke-width:1.5;stroke-linecap:butt;stroke-linejoin:miter;stroke:rgb(93.501401%,18.711485%,21.40056%);stroke-opacity:1;stroke-miterlimit:2;" d="M 421.270833 162.145833 L 421.270833 164.864583 L 423.984375 164.864583 L 423.984375 167.5625 L 421.270833 167.5625 L 421.270833 170.28125 L 418.572917 170.28125 L 418.572917 167.5625 L 415.854167 167.5625 L 415.854167 164.864583 L 418.572917 164.864583 L 418.572917 162.145833 Z M 421.270833 162.145833 " transform="matrix(0.75,0,0,0.75,0,0)"/>
<path style="fill-rule:nonzero;fill:rgb(100%,76.47059%,23.137255%);fill-opacity:0.65;stroke-width:1.5;stroke-linecap:butt;stroke-linejoin:miter;stroke:rgb(100%,76.47059%,23.137255%);stroke-opacity:1;stroke-miterlimit:2;" d="M 473.932292 362.447917 L 476.354167 364.869792 L 478.770833 362.447917 L 481.177083 364.854167 L 478.760417 367.270833 L 481.177083 369.692708 L 478.770833 372.098958 L 476.354167 369.677083 L 473.932292 372.098958 L 471.53125 369.692708 L 473.947917 367.270833 L 471.53125 364.854167 Z M 473.932292 362.447917 " transform="matrix(0.75,0,0,0.75,0,0)"/>
<path style="fill:none;stroke-width:1;stroke-linecap:butt;stroke-linejoin:miter;stroke:rgb(45.09804%,45.09804%,45.09804%);stroke-opacity:1;stroke-miterlimit:2;" d="M 15.5 384 L 584.5 384 " transform="matrix(0.75,0,0,0.75,0,0)"/>
<path style="fill:none;stroke-width:1;stroke-linecap:butt;stroke-linejoin:miter;stroke:rgb(45.09804%,45.09804%,45.09804%);stroke-opacity:1;stroke-miterlimit:2;" d="M 16 384.5 L 16 15.5 " transform="matrix(0.75,0,0,0.75,0,0)"/>
<path style="fill:none;stroke-width:1;stroke-linecap:butt;stroke-linejoin:miter;stroke:rgb(45.09804%,45.09804%,45.09804%);stroke-opacity:1;stroke-miterlimit:2;" d="M 15.5 16 L 584.5 16 " transform="matrix(0.75,0,0,0.75,0,0)"/>
<path style="fill:none;stroke-width:1;stroke-linecap:butt;stroke-linejoin:miter;stroke:rgb(45.09804%,45.09804%,45.09804%);stroke-opacity:1;stroke-miterlimit:2;" d="M 584 384.5 L 584 15.5 " transform="matrix(0.75,0,0,0.75,0,0)"/>
</g>
</svg>
