<?xml version="1.0" encoding="UTF-8"?>
<svg xmlns="http://www.w3.org/2000/svg" xmlns:xlink="http://www.w3.org/1999/xlink" width="600" height="400" viewBox="0 0 600 400">
<rect x="-60" y="-40" width="720" height="480" fill="rgb(100%, 100%, 100%)" fill-opacity="1"/>
<path fill-rule="nonzero" fill="rgb(92.156863%, 92.156863%, 92.156863%)" fill-opacity="1" d="M 16 384 L 584 384 L 584 16 L 16 16 Z M 16 384 "/>
<path fill="none" stroke-width="1.5" stroke-linecap="butt" stroke-linejoin="miter" stroke="rgb(100%, 100%, 100%)" stroke-opacity="1" stroke-miterlimit="1.154701" d="M 24.886719 384 L 24.886719 16 "/>
<path fill="none" stroke-width="1.5" stroke-linecap="butt" stroke-linejoin="miter" stroke="rgb(100%, 100%, 100%)" stroke-opacity="1" stroke-miterlimit="1.154701" d="M 137.753906 384 L 137.753906 16 "/>
<path fill="none" stroke-width="1.5" stroke-linecap="butt" stroke-linejoin="miter" stroke="rgb(100%, 100%, 100%)" stroke-opacity="1" stroke-miterlimit="1.154701" d="M 250.621094 384 L 250.621094 16 "/>
<path fill="none" stroke-width="1.5" stroke-linecap="butt" stroke-linejoin="miter" stroke="rgb(100%, 100%, 100%)" stroke-opacity="1" stroke-miterlimit="1.154701" d="M 363.488281 384 L 363.488281 16 "/>
<path fill="none" stroke-width="1.5" stroke-linecap="butt" stroke-linejoin="miter" stroke="rgb(100%, 100%, 100%)" stroke-opacity="1" stroke-miterlimit="1.154701" d="M 476.355469 384 L 476.355469 16 "/>
<path fill="none" stroke-width="1.5" stroke-linecap="butt" stroke-linejoin="miter" stroke="rgb(100%, 100%, 100%)" stroke-opacity="1" stroke-miterlimit="1.154701" d="M 16 266.21875 L 584 266.21875 "/>
<path fill="none" stroke-width="1.5" stroke-linecap="butt" stroke-linejoin="miter" stroke="rgb(100%, 100%, 100%)" stroke-opacity="1" stroke-miterlimit="1.154701" d="M 16 145.957031 L 584 145.957031 "/>
<path fill="none" stroke-width="1.5" stroke-linecap="butt" stroke-linejoin="miter" stroke="rgb(100%, 100%, 100%)" stroke-opacity="1" stroke-miterlimit="1.154701" d="M 16 25.695312 L 584 25.695312 "/>
<path fill="none" stroke-width="1.5" stroke-linecap="butt" stroke-linejoin="miter" stroke="rgb(0%, 0%, 0%)" stroke-opacity="1" stroke-miterlimit="2" d="M 41.816406 145.957031 L 549.71875 145.957031 "/>
<path fill="none" stroke-width="1.5" stroke-linecap="butt" stroke-linejoin="miter" stroke="rgb(99.985999%, 100%, 100%)" stroke-opacity="1" stroke-miterlimit="1.154701" d="M 41.816406 64.808594 L 41.816406 145.957031 "/>
<path fill="none" stroke-width="1.5" stroke-linecap="butt" stroke-linejoin="miter" stroke="rgb(95.783496%, 98.369002%, 99.662%)" stroke-opacity="1" stroke-miterlimit="1.154701" d="M 58.75 79.933594 L 58.75 145.957031 "/>
<path fill="none" stroke-width="1.5" stroke-linecap="butt" stroke-linejoin="miter" stroke="rgb(91.526997%, 96.732998%, 99.318999%)" stroke-opacity="1" stroke-miterlimit="1.154701" d="M 75.679688 99.125 L 75.679688 145.957031 "/>
<path fill="none" stroke-width="1.5" stroke-linecap="butt" stroke-linejoin="miter" stroke="rgb(87.467504%, 95.013499%, 99.115503%)" stroke-opacity="1" stroke-miterlimit="1.154701" d="M 92.609375 120.246094 L 92.609375 145.957031 "/>
<path fill="none" stroke-width="1.5" stroke-linecap="butt" stroke-linejoin="miter" stroke="rgb(84.044999%, 93.074%, 99.291998%)" stroke-opacity="1" stroke-miterlimit="1.154701" d="M 109.539062 141.230469 L 109.539062 145.957031 "/>
<path fill="none" stroke-width="1.5" stroke-linecap="butt" stroke-linejoin="miter" stroke="rgb(80.559003%, 91.145003%, 99.458504%)" stroke-opacity="1" stroke-miterlimit="1.154701" d="M 126.46875 160.253906 L 126.46875 145.957031 "/>
<path fill="none" stroke-width="1.5" stroke-linecap="butt" stroke-linejoin="miter" stroke="rgb(77.811998%, 89.024001%, 99.64%)" stroke-opacity="1" stroke-miterlimit="1.154701" d="M 143.398438 175.875 L 143.398438 145.957031 "/>
<path fill="none" stroke-width="1.5" stroke-linecap="butt" stroke-linejoin="miter" stroke="rgb(75.692499%, 86.746001%, 99.830997%)" stroke-opacity="1" stroke-miterlimit="1.154701" d="M 160.328125 187.113281 L 160.328125 145.957031 "/>
<path fill="none" stroke-width="1.5" stroke-linecap="butt" stroke-linejoin="miter" stroke="rgb(73.532999%, 84.478998%, 100%)" stroke-opacity="1" stroke-miterlimit="1.154701" d="M 177.257812 193.476562 L 177.257812 145.957031 "/>
<path fill="none" stroke-width="1.5" stroke-linecap="butt" stroke-linejoin="miter" stroke="rgb(72.817004%, 81.900501%, 99.803501%)" stroke-opacity="1" stroke-miterlimit="1.154701" d="M 194.1875 194.964844 L 194.1875 145.957031 "/>
<path fill="none" stroke-width="1.5" stroke-linecap="butt" stroke-linejoin="miter" stroke="rgb(72.391999%, 79.253%, 99.501997%)" stroke-opacity="1" stroke-miterlimit="1.154701" d="M 211.117188 191.992188 L 211.117188 145.957031 "/>
<path fill="none" stroke-width="1.5" stroke-linecap="butt" stroke-linejoin="miter" stroke="rgb(72.090501%, 76.5715%, 99.109995%)" stroke-opacity="1" stroke-miterlimit="1.154701" d="M 228.046875 185.328125 L 228.046875 145.957031 "/>
<path fill="none" stroke-width="1.5" stroke-linecap="butt" stroke-linejoin="miter" stroke="rgb(73.351997%, 73.544002%, 97.868001%)" stroke-opacity="1" stroke-miterlimit="1.154701" d="M 244.976562 175.972656 L 244.976562 145.957031 "/>
<path fill="none" stroke-width="1.5" stroke-linecap="butt" stroke-linejoin="miter" stroke="rgb(74.491501%, 70.490503%, 96.626496%)" stroke-opacity="1" stroke-miterlimit="1.154701" d="M 261.90625 165.046875 L 261.90625 145.957031 "/>
<path fill="none" stroke-width="1.5" stroke-linecap="butt" stroke-linejoin="miter" stroke="rgb(76.032001%, 67.300999%, 94.919002%)" stroke-opacity="1" stroke-miterlimit="1.154701" d="M 278.835938 153.6875 L 278.835938 145.957031 "/>
<path fill="none" stroke-width="1.5" stroke-linecap="butt" stroke-linejoin="miter" stroke="rgb(78.268003%, 63.874495%, 92.405999%)" stroke-opacity="1" stroke-miterlimit="1.154701" d="M 295.765625 142.9375 L 295.765625 145.957031 "/>
<path fill="none" stroke-width="1.5" stroke-linecap="butt" stroke-linejoin="miter" stroke="rgb(80.282003%, 60.373002%, 89.907002%)" stroke-opacity="1" stroke-miterlimit="1.154701" d="M 312.699219 133.664062 L 312.699219 145.957031 "/>
<path fill="none" stroke-width="1.5" stroke-linecap="butt" stroke-linejoin="miter" stroke="rgb(82.587004%, 56.704497%, 86.488998%)" stroke-opacity="1" stroke-miterlimit="1.154701" d="M 329.628906 126.515625 L 329.628906 145.957031 "/>
<path fill="none" stroke-width="1.5" stroke-linecap="butt" stroke-linejoin="miter" stroke="rgb(84.890002%, 52.875%, 82.568997%)" stroke-opacity="1" stroke-miterlimit="1.154701" d="M 346.558594 121.878906 L 346.558594 145.957031 "/>
<path fill="none" stroke-width="1.5" stroke-linecap="butt" stroke-linejoin="miter" stroke="rgb(86.921%, 48.8875%, 78.688002%)" stroke-opacity="1" stroke-miterlimit="1.154701" d="M 363.488281 119.871094 L 363.488281 145.957031 "/>
<path fill="none" stroke-width="1.5" stroke-linecap="butt" stroke-linejoin="miter" stroke="rgb(88.793999%, 44.891%, 73.522002%)" stroke-opacity="1" stroke-miterlimit="1.154701" d="M 380.417969 120.375 L 380.417969 145.957031 "/>
<path fill="none" stroke-width="1.5" stroke-linecap="butt" stroke-linejoin="miter" stroke="rgb(90.379%, 40.700501%, 68.289%)" stroke-opacity="1" stroke-miterlimit="1.154701" d="M 397.347656 123.0625 L 397.347656 145.957031 "/>
<path fill="none" stroke-width="1.5" stroke-linecap="butt" stroke-linejoin="miter" stroke="rgb(91.606998%, 36.353001%, 62.897003%)" stroke-opacity="1" stroke-miterlimit="1.154701" d="M 414.277344 127.449219 L 414.277344 145.957031 "/>
<path fill="none" stroke-width="1.5" stroke-linecap="butt" stroke-linejoin="miter" stroke="rgb(92.173499%, 32.309002%, 56.560498%)" stroke-opacity="1" stroke-miterlimit="1.154701" d="M 431.207031 132.957031 L 431.207031 145.957031 "/>
<path fill="none" stroke-width="1.5" stroke-linecap="butt" stroke-linejoin="miter" stroke="rgb(92.483002%, 27.941999%, 50.321001%)" stroke-opacity="1" stroke-miterlimit="1.154701" d="M 448.136719 138.980469 L 448.136719 145.957031 "/>
<path fill="none" stroke-width="1.5" stroke-linecap="butt" stroke-linejoin="miter" stroke="rgb(92.125499%, 23.851001%, 43.774%)" stroke-opacity="1" stroke-miterlimit="1.154701" d="M 465.066406 144.933594 L 465.066406 145.957031 "/>
<path fill="none" stroke-width="1.5" stroke-linecap="butt" stroke-linejoin="miter" stroke="rgb(91.035998%, 20.379999%, 36.829999%)" stroke-opacity="1" stroke-miterlimit="1.154701" d="M 481.996094 150.304688 L 481.996094 145.957031 "/>
<path fill="none" stroke-width="1.5" stroke-linecap="butt" stroke-linejoin="miter" stroke="rgb(89.749503%, 16.575%, 29.9485%)" stroke-opacity="1" stroke-miterlimit="1.154701" d="M 498.925781 154.6875 L 498.925781 145.957031 "/>
<path fill="none" stroke-width="1.5" stroke-linecap="butt" stroke-linejoin="miter" stroke="rgb(87.387002%, 14.707001%, 22.719%)" stroke-opacity="1" stroke-miterlimit="1.154701" d="M 515.855469 157.808594 L 515.855469 145.957031 "/>
<path fill="none" stroke-width="1.5" stroke-linecap="butt" stroke-linejoin="miter" stroke="rgb(84.548497%, 13.780001%, 15.013501%)" stroke-opacity="1" stroke-miterlimit="1.154701" d="M 532.785156 159.542969 L 532.785156 145.957031 "/>
<path fill="none" stroke-width="1.5" stroke-linecap="butt" stroke-linejoin="miter" stroke="rgb(81.589001%, 12.954%, 5.5606%)" stroke-opacity="1" stroke-miterlimit="1.154701" d="M 549.71875 159.890625 L 549.71875 145.957031 "/>
<path fill-rule="nonzero" fill="rgb(99.985999%, 100%, 100%)" fill-opacity="1" d="M 44.992188 64.808594 C 44.992188 60.578125 38.644531 60.578125 38.644531 64.808594 C 38.644531 69.039062 44.992188 69.039062 44.992188 64.808594 Z M 44.992188 64.808594 "/>
<path fill-rule="nonzero" fill="rgb(98.010498%, 98.525%, 91.366994%)" fill-opacity="1" d="M 61.921875 79.933594 C 61.921875 75.703125 55.574219 75.703125 55.574219 79.933594 C 55.574219 84.164062 61.921875 84.164062 61.921875 79.933594 Z M 61.921875 79.933594 "/>
<path fill-rule="nonzero" fill="rgb(95.822001%, 97.051001%, 82.765001%)" fill-opacity="1" d="M 78.851562 99.125 C 78.851562 94.894531 72.503906 94.894531 72.503906 99.125 C 72.503906 103.355469 78.851562 103.355469 78.851562 99.125 Z M 78.851562 99.125 "/>
<path fill-rule="nonzero" fill="rgb(93.882%, 95.381999%, 75.119996%)" fill-opacity="1" d="M 95.78125 120.246094 C 95.78125 116.019531 89.4375 116.019531 89.4375 120.246094 C 89.4375 124.476562 95.78125 124.476562 95.78125 120.246094 Z M 95.78125 120.246094 "/>
<path fill-rule="nonzero" fill="rgb(93.037999%, 93.184%, 70.008999%)" fill-opacity="1" d="M 112.710938 141.230469 C 112.710938 137 106.367188 137 106.367188 141.230469 C 106.367188 145.460938 112.710938 145.460938 112.710938 141.230469 Z M 112.710938 141.230469 "/>
<path fill-rule="nonzero" fill="rgb(92.105997%, 91.000998%, 64.910996%)" fill-opacity="1" d="M 129.640625 160.253906 C 129.640625 156.023438 123.296875 156.023438 123.296875 160.253906 C 123.296875 164.484375 129.640625 164.484375 129.640625 160.253906 Z M 129.640625 160.253906 "/>
<path fill-rule="nonzero" fill="rgb(91.451001%, 88.699001%, 60.189998%)" fill-opacity="1" d="M 146.570312 175.875 C 146.570312 171.644531 140.226562 171.644531 140.226562 175.875 C 140.226562 180.105469 146.570312 180.105469 146.570312 175.875 Z M 146.570312 175.875 "/>
<path fill-rule="nonzero" fill="rgb(91.0115%, 86.298001%, 55.785%)" fill-opacity="1" d="M 163.5 187.113281 C 163.5 182.882812 157.15625 182.882812 157.15625 187.113281 C 157.15625 191.34375 163.5 191.34375 163.5 187.113281 Z M 163.5 187.113281 "/>
<path fill-rule="nonzero" fill="rgb(90.486997%, 83.91%, 51.379001%)" fill-opacity="1" d="M 180.429688 193.476562 C 180.429688 189.246094 174.085938 189.246094 174.085938 193.476562 C 174.085938 197.707031 180.429688 197.707031 180.429688 193.476562 Z M 180.429688 193.476562 "/>
<path fill-rule="nonzero" fill="rgb(90.244997%, 81.388998%, 47.403002%)" fill-opacity="1" d="M 197.359375 194.964844 C 197.359375 190.734375 191.015625 190.734375 191.015625 194.964844 C 191.015625 199.191406 197.359375 199.191406 197.359375 194.964844 Z M 197.359375 194.964844 "/>
<path fill-rule="nonzero" fill="rgb(90.000999%, 78.843999%, 43.516999%)" fill-opacity="1" d="M 214.289062 191.992188 C 214.289062 187.761719 207.945312 187.761719 207.945312 191.992188 C 207.945312 196.222656 214.289062 196.222656 214.289062 191.992188 Z M 214.289062 191.992188 "/>
<path fill-rule="nonzero" fill="rgb(89.706004%, 76.292503%, 39.658499%)" fill-opacity="1" d="M 231.21875 185.328125 C 231.21875 181.097656 224.875 181.097656 224.875 185.328125 C 224.875 189.558594 231.21875 189.558594 231.21875 185.328125 Z M 231.21875 185.328125 "/>
<path fill-rule="nonzero" fill="rgb(89.617002%, 73.618001%, 36.271%)" fill-opacity="1" d="M 248.148438 175.972656 C 248.148438 171.742188 241.804688 171.742188 241.804688 175.972656 C 241.804688 180.203125 248.148438 180.203125 248.148438 175.972656 Z M 248.148438 175.972656 "/>
<path fill-rule="nonzero" fill="rgb(89.453%, 70.9445%, 32.859001%)" fill-opacity="1" d="M 265.082031 165.046875 C 265.082031 160.816406 258.734375 160.816406 258.734375 165.046875 C 258.734375 169.277344 265.082031 169.277344 265.082031 165.046875 Z M 265.082031 165.046875 "/>
<path fill-rule="nonzero" fill="rgb(89.293998%, 68.225998%, 29.622999%)" fill-opacity="1" d="M 282.011719 153.6875 C 282.011719 149.457031 275.664062 149.457031 275.664062 153.6875 C 275.664062 157.917969 282.011719 157.917969 282.011719 153.6875 Z M 282.011719 153.6875 "/>
<path fill-rule="nonzero" fill="rgb(89.201498%, 65.428996%, 26.732498%)" fill-opacity="1" d="M 298.941406 142.9375 C 298.941406 138.707031 292.59375 138.707031 292.59375 142.9375 C 292.59375 147.164062 298.941406 147.164062 298.941406 142.9375 Z M 298.941406 142.9375 "/>
<path fill-rule="nonzero" fill="rgb(89.043999%, 62.616998%, 23.799001%)" fill-opacity="1" d="M 315.871094 133.664062 C 315.871094 129.433594 309.523438 129.433594 309.523438 133.664062 C 309.523438 137.894531 315.871094 137.894531 315.871094 133.664062 Z M 315.871094 133.664062 "/>
<path fill-rule="nonzero" fill="rgb(88.907003%, 59.732497%, 21.242%)" fill-opacity="1" d="M 332.800781 126.515625 C 332.800781 122.285156 326.453125 122.285156 326.453125 126.515625 C 326.453125 130.746094 332.800781 130.746094 332.800781 126.515625 Z M 332.800781 126.515625 "/>
<path fill-rule="nonzero" fill="rgb(88.757998%, 56.787997%, 18.897%)" fill-opacity="1" d="M 349.730469 121.878906 C 349.730469 117.648438 343.386719 117.648438 343.386719 121.878906 C 343.386719 126.109375 349.730469 126.109375 349.730469 121.878906 Z M 349.730469 121.878906 "/>
<path fill-rule="nonzero" fill="rgb(88.5535%, 53.8055%, 16.5085%)" fill-opacity="1" d="M 366.660156 119.871094 C 366.660156 115.644531 360.316406 115.644531 360.316406 119.871094 C 360.316406 124.101562 366.660156 124.101562 366.660156 119.871094 Z M 366.660156 119.871094 "/>
<path fill-rule="nonzero" fill="rgb(88.350999%, 50.726002%, 14.783999%)" fill-opacity="1" d="M 383.589844 120.375 C 383.589844 116.148438 377.246094 116.148438 377.246094 120.375 C 377.246094 124.605469 383.589844 124.605469 383.589844 120.375 Z M 383.589844 120.375 "/>
<path fill-rule="nonzero" fill="rgb(88.103998%, 47.576499%, 13.126999%)" fill-opacity="1" d="M 400.519531 123.0625 C 400.519531 118.832031 394.175781 118.832031 394.175781 123.0625 C 394.175781 127.292969 400.519531 127.292969 400.519531 123.0625 Z M 400.519531 123.0625 "/>
<path fill-rule="nonzero" fill="rgb(87.809998%, 44.343999%, 11.614%)" fill-opacity="1" d="M 417.449219 127.449219 C 417.449219 123.21875 411.105469 123.21875 411.105469 127.449219 C 411.105469 131.675781 417.449219 131.675781 417.449219 127.449219 Z M 417.449219 127.449219 "/>
<path fill-rule="nonzero" fill="rgb(87.469%, 40.989%, 10.813%)" fill-opacity="1" d="M 434.378906 132.957031 C 434.378906 128.726562 428.035156 128.726562 428.035156 132.957031 C 428.035156 137.1875 434.378906 137.1875 434.378906 132.957031 Z M 434.378906 132.957031 "/>
<path fill-rule="nonzero" fill="rgb(87.086999%, 37.496001%, 10.045%)" fill-opacity="1" d="M 451.308594 138.980469 C 451.308594 134.75 444.964844 134.75 444.964844 138.980469 C 444.964844 143.210938 451.308594 143.210938 451.308594 138.980469 Z M 451.308594 138.980469 "/>
<path fill-rule="nonzero" fill="rgb(86.637998%, 33.833%, 9.6806%)" fill-opacity="1" d="M 468.238281 144.933594 C 468.238281 140.703125 461.894531 140.703125 461.894531 144.933594 C 461.894531 149.164062 468.238281 149.164062 468.238281 144.933594 Z M 468.238281 144.933594 "/>
<path fill-rule="nonzero" fill="rgb(86.119998%, 29.936001%, 9.7711%)" fill-opacity="1" d="M 485.167969 150.304688 C 485.167969 146.074219 478.824219 146.074219 478.824219 150.304688 C 478.824219 154.535156 485.167969 154.535156 485.167969 150.304688 Z M 485.167969 150.304688 "/>
<path fill-rule="nonzero" fill="rgb(85.5685%, 25.661498%, 9.835%)" fill-opacity="1" d="M 502.097656 154.6875 C 502.097656 150.457031 495.753906 150.457031 495.753906 154.6875 C 495.753906 158.917969 502.097656 158.917969 502.097656 154.6875 Z M 502.097656 154.6875 "/>
<path fill-rule="nonzero" fill="rgb(84.902%, 20.886999%, 10.351%)" fill-opacity="1" d="M 519.03125 157.808594 C 519.03125 153.578125 512.683594 153.578125 512.683594 157.808594 C 512.683594 162.039062 519.03125 162.039062 519.03125 157.808594 Z M 519.03125 157.808594 "/>
<path fill-rule="nonzero" fill="rgb(84.176499%, 15.0555%, 10.9485%)" fill-opacity="1" d="M 535.960938 159.542969 C 535.960938 155.3125 529.613281 155.3125 529.613281 159.542969 C 529.613281 163.773438 535.960938 163.773438 535.960938 159.542969 Z M 535.960938 159.542969 "/>
<path fill-rule="nonzero" fill="rgb(83.421999%, 5.9213%, 11.447%)" fill-opacity="1" d="M 552.890625 159.890625 C 552.890625 155.660156 546.542969 155.660156 546.542969 159.890625 C 546.542969 164.121094 552.890625 164.121094 552.890625 159.890625 Z M 552.890625 159.890625 "/>
<path fill="none" stroke-width="1.5" stroke-linecap="butt" stroke-linejoin="miter" stroke="rgb(0%, 0%, 0%)" stroke-opacity="1" stroke-miterlimit="2" d="M 50.28125 145.957031 L 558.183594 145.957031 "/>
<path fill="none" stroke-width="0.5" stroke-linecap="butt" stroke-linejoin="miter" stroke="rgb(0%, 0%, 0%)" stroke-opacity="1" stroke-miterlimit="1.154701" d="M 50.28125 322.410156 L 50.28125 145.957031 "/>
<path fill="none" stroke-width="0.5" stroke-linecap="butt" stroke-linejoin="miter" stroke="rgb(0%, 0%, 0%)" stroke-opacity="1" stroke-miterlimit="1.154701" d="M 67.214844 213.636719 L 67.214844 145.957031 "/>
<path fill="none" stroke-width="0.5" stroke-linecap="butt" stroke-linejoin="miter" stroke="rgb(0%, 0%, 0%)" stroke-opacity="1" stroke-miterlimit="1.154701" d="M 84.144531 172.457031 L 84.144531 145.957031 "/>
<path fill="none" stroke-width="0.5" stroke-linecap="butt" stroke-linejoin="miter" stroke="rgb(0%, 0%, 0%)" stroke-opacity="1" stroke-miterlimit="1.154701" d="M 101.074219 149.082031 L 101.074219 145.957031 "/>
<path fill="none" stroke-width="0.5" stroke-linecap="butt" stroke-linejoin="miter" stroke="rgb(0%, 0%, 0%)" stroke-opacity="1" stroke-miterlimit="1.154701" d="M 118.003906 133.761719 L 118.003906 145.957031 "/>
<path fill="none" stroke-width="0.5" stroke-linecap="butt" stroke-linejoin="miter" stroke="rgb(0%, 0%, 0%)" stroke-opacity="1" stroke-miterlimit="1.154701" d="M 134.933594 123.335938 L 134.933594 145.957031 "/>
<path fill="none" stroke-width="0.5" stroke-linecap="butt" stroke-linejoin="miter" stroke="rgb(0%, 0%, 0%)" stroke-opacity="1" stroke-miterlimit="1.154701" d="M 151.863281 116.46875 L 151.863281 145.957031 "/>
<path fill="none" stroke-width="0.5" stroke-linecap="butt" stroke-linejoin="miter" stroke="rgb(0%, 0%, 0%)" stroke-opacity="1" stroke-miterlimit="1.154701" d="M 168.792969 112.449219 L 168.792969 145.957031 "/>
<path fill="none" stroke-width="0.5" stroke-linecap="butt" stroke-linejoin="miter" stroke="rgb(0%, 0%, 0%)" stroke-opacity="1" stroke-miterlimit="1.154701" d="M 185.722656 110.789062 L 185.722656 145.957031 "/>
<path fill="none" stroke-width="0.5" stroke-linecap="butt" stroke-linejoin="miter" stroke="rgb(0%, 0%, 0%)" stroke-opacity="1" stroke-miterlimit="1.154701" d="M 202.652344 111.082031 L 202.652344 145.957031 "/>
<path fill="none" stroke-width="0.5" stroke-linecap="butt" stroke-linejoin="miter" stroke="rgb(0%, 0%, 0%)" stroke-opacity="1" stroke-miterlimit="1.154701" d="M 219.582031 112.929688 L 219.582031 145.957031 "/>
<path fill="none" stroke-width="0.5" stroke-linecap="butt" stroke-linejoin="miter" stroke="rgb(0%, 0%, 0%)" stroke-opacity="1" stroke-miterlimit="1.154701" d="M 236.511719 115.945312 L 236.511719 145.957031 "/>
<path fill="none" stroke-width="0.5" stroke-linecap="butt" stroke-linejoin="miter" stroke="rgb(0%, 0%, 0%)" stroke-opacity="1" stroke-miterlimit="1.154701" d="M 253.441406 119.730469 L 253.441406 145.957031 "/>
<path fill="none" stroke-width="0.5" stroke-linecap="butt" stroke-linejoin="miter" stroke="rgb(0%, 0%, 0%)" stroke-opacity="1" stroke-miterlimit="1.154701" d="M 270.371094 123.90625 L 270.371094 145.957031 "/>
<path fill="none" stroke-width="0.5" stroke-linecap="butt" stroke-linejoin="miter" stroke="rgb(0%, 0%, 0%)" stroke-opacity="1" stroke-miterlimit="1.154701" d="M 287.300781 128.109375 L 287.300781 145.957031 "/>
<path fill="none" stroke-width="0.5" stroke-linecap="butt" stroke-linejoin="miter" stroke="rgb(0%, 0%, 0%)" stroke-opacity="1" stroke-miterlimit="1.154701" d="M 304.234375 132.019531 L 304.234375 145.957031 "/>
<path fill="none" stroke-width="0.5" stroke-linecap="butt" stroke-linejoin="miter" stroke="rgb(0%, 0%, 0%)" stroke-opacity="1" stroke-miterlimit="1.154701" d="M 321.164062 135.382812 L 321.164062 145.957031 "/>
<path fill="none" stroke-width="0.5" stroke-linecap="butt" stroke-linejoin="miter" stroke="rgb(0%, 0%, 0%)" stroke-opacity="1" stroke-miterlimit="1.154701" d="M 338.09375 137.992188 L 338.09375 145.957031 "/>
<path fill="none" stroke-width="0.5" stroke-linecap="butt" stroke-linejoin="miter" stroke="rgb(0%, 0%, 0%)" stroke-opacity="1" stroke-miterlimit="1.154701" d="M 355.023438 139.730469 L 355.023438 145.957031 "/>
<path fill="none" stroke-width="0.5" stroke-linecap="butt" stroke-linejoin="miter" stroke="rgb(0%, 0%, 0%)" stroke-opacity="1" stroke-miterlimit="1.154701" d="M 371.953125 140.546875 L 371.953125 145.957031 "/>
<path fill="none" stroke-width="0.5" stroke-linecap="butt" stroke-linejoin="miter" stroke="rgb(0%, 0%, 0%)" stroke-opacity="1" stroke-miterlimit="1.154701" d="M 388.882812 140.46875 L 388.882812 145.957031 "/>
<path fill="none" stroke-width="0.5" stroke-linecap="butt" stroke-linejoin="miter" stroke="rgb(0%, 0%, 0%)" stroke-opacity="1" stroke-miterlimit="1.154701" d="M 405.8125 139.582031 L 405.8125 145.957031 "/>
<path fill="none" stroke-width="0.5" stroke-linecap="butt" stroke-linejoin="miter" stroke="rgb(0%, 0%, 0%)" stroke-opacity="1" stroke-miterlimit="1.154701" d="M 422.742188 138.035156 L 422.742188 145.957031 "/>
<path fill="none" stroke-width="0.5" stroke-linecap="butt" stroke-linejoin="miter" stroke="rgb(0%, 0%, 0%)" stroke-opacity="1" stroke-miterlimit="1.154701" d="M 439.671875 136.003906 L 439.671875 145.957031 "/>
<path fill="none" stroke-width="0.5" stroke-linecap="butt" stroke-linejoin="miter" stroke="rgb(0%, 0%, 0%)" stroke-opacity="1" stroke-miterlimit="1.154701" d="M 456.601562 133.703125 L 456.601562 145.957031 "/>
<path fill="none" stroke-width="0.5" stroke-linecap="butt" stroke-linejoin="miter" stroke="rgb(0%, 0%, 0%)" stroke-opacity="1" stroke-miterlimit="1.154701" d="M 473.53125 131.339844 L 473.53125 145.957031 "/>
<path fill="none" stroke-width="0.5" stroke-linecap="butt" stroke-linejoin="miter" stroke="rgb(0%, 0%, 0%)" stroke-opacity="1" stroke-miterlimit="1.154701" d="M 490.460938 129.117188 L 490.460938 145.957031 "/>
<path fill="none" stroke-width="0.5" stroke-linecap="butt" stroke-linejoin="miter" stroke="rgb(0%, 0%, 0%)" stroke-opacity="1" stroke-miterlimit="1.154701" d="M 507.390625 127.207031 L 507.390625 145.957031 "/>
<path fill="none" stroke-width="0.5" stroke-linecap="butt" stroke-linejoin="miter" stroke="rgb(0%, 0%, 0%)" stroke-opacity="1" stroke-miterlimit="1.154701" d="M 524.320312 125.75 L 524.320312 145.957031 "/>
<path fill="none" stroke-width="0.5" stroke-linecap="butt" stroke-linejoin="miter" stroke="rgb(0%, 0%, 0%)" stroke-opacity="1" stroke-miterlimit="1.154701" d="M 541.25 124.835938 L 541.25 145.957031 "/>
<path fill="none" stroke-width="0.5" stroke-linecap="butt" stroke-linejoin="miter" stroke="rgb(0%, 0%, 0%)" stroke-opacity="1" stroke-miterlimit="1.154701" d="M 558.183594 124.507812 L 558.183594 145.957031 "/>
<path fill="none" stroke-width="1" stroke-linecap="butt" stroke-linejoin="miter" stroke="rgb(0%, 0%, 0%)" stroke-opacity="1" stroke-miterlimit="2" d="M 53.441406 325.566406 L 53.441406 319.25 L 47.125 319.25 L 47.125 325.566406 Z M 53.441406 325.566406 "/>
<path fill="none" stroke-width="1" stroke-linecap="butt" stroke-linejoin="miter" stroke="rgb(0%, 0%, 0%)" stroke-opacity="1" stroke-miterlimit="2" d="M 70.371094 216.796875 L 70.371094 210.480469 L 64.054688 210.480469 L 64.054688 216.796875 Z M 70.371094 216.796875 "/>
<path fill="none" stroke-width="1" stroke-linecap="butt" stroke-linejoin="miter" stroke="rgb(0%, 0%, 0%)" stroke-opacity="1" stroke-miterlimit="2" d="M 87.300781 175.613281 L 87.300781 169.296875 L 80.984375 169.296875 L 80.984375 175.613281 Z M 87.300781 175.613281 "/>
<path fill="none" stroke-width="1" stroke-linecap="butt" stroke-linejoin="miter" stroke="rgb(0%, 0%, 0%)" stroke-opacity="1" stroke-miterlimit="2" d="M 104.230469 152.238281 L 104.230469 145.925781 L 97.914062 145.925781 L 97.914062 152.238281 Z M 104.230469 152.238281 "/>
<path fill="none" stroke-width="1" stroke-linecap="butt" stroke-linejoin="miter" stroke="rgb(0%, 0%, 0%)" stroke-opacity="1" stroke-miterlimit="2" d="M 121.160156 136.917969 L 121.160156 130.601562 L 114.847656 130.601562 L 114.847656 136.917969 Z M 121.160156 136.917969 "/>
<path fill="none" stroke-width="1" stroke-linecap="butt" stroke-linejoin="miter" stroke="rgb(0%, 0%, 0%)" stroke-opacity="1" stroke-miterlimit="2" d="M 138.089844 126.492188 L 138.089844 120.175781 L 131.777344 120.175781 L 131.777344 126.492188 Z M 138.089844 126.492188 "/>
<path fill="none" stroke-width="1" stroke-linecap="butt" stroke-linejoin="miter" stroke="rgb(0%, 0%, 0%)" stroke-opacity="1" stroke-miterlimit="2" d="M 155.019531 119.625 L 155.019531 113.3125 L 148.707031 113.3125 L 148.707031 119.625 Z M 155.019531 119.625 "/>
<path fill="none" stroke-width="1" stroke-linecap="butt" stroke-linejoin="miter" stroke="rgb(0%, 0%, 0%)" stroke-opacity="1" stroke-miterlimit="2" d="M 171.949219 115.605469 L 171.949219 109.292969 L 165.636719 109.292969 L 165.636719 115.605469 Z M 171.949219 115.605469 "/>
<path fill="none" stroke-width="1" stroke-linecap="butt" stroke-linejoin="miter" stroke="rgb(0%, 0%, 0%)" stroke-opacity="1" stroke-miterlimit="2" d="M 188.878906 113.949219 L 188.878906 107.632812 L 182.566406 107.632812 L 182.566406 113.949219 Z M 188.878906 113.949219 "/>
<path fill="none" stroke-width="1" stroke-linecap="butt" stroke-linejoin="miter" stroke="rgb(0%, 0%, 0%)" stroke-opacity="1" stroke-miterlimit="2" d="M 205.808594 114.238281 L 205.808594 107.925781 L 199.496094 107.925781 L 199.496094 114.238281 Z M 205.808594 114.238281 "/>
<path fill="none" stroke-width="1" stroke-linecap="butt" stroke-linejoin="miter" stroke="rgb(0%, 0%, 0%)" stroke-opacity="1" stroke-miterlimit="2" d="M 222.738281 116.089844 L 222.738281 109.773438 L 216.425781 109.773438 L 216.425781 116.089844 Z M 222.738281 116.089844 "/>
<path fill="none" stroke-width="1" stroke-linecap="butt" stroke-linejoin="miter" stroke="rgb(0%, 0%, 0%)" stroke-opacity="1" stroke-miterlimit="2" d="M 239.667969 119.101562 L 239.667969 112.789062 L 233.355469 112.789062 L 233.355469 119.101562 Z M 239.667969 119.101562 "/>
<path fill="none" stroke-width="1" stroke-linecap="butt" stroke-linejoin="miter" stroke="rgb(0%, 0%, 0%)" stroke-opacity="1" stroke-miterlimit="2" d="M 256.601562 122.890625 L 256.601562 116.574219 L 250.285156 116.574219 L 250.285156 122.890625 Z M 256.601562 122.890625 "/>
<path fill="none" stroke-width="1" stroke-linecap="butt" stroke-linejoin="miter" stroke="rgb(0%, 0%, 0%)" stroke-opacity="1" stroke-miterlimit="2" d="M 273.53125 127.0625 L 273.53125 120.75 L 267.214844 120.75 L 267.214844 127.0625 Z M 273.53125 127.0625 "/>
<path fill="none" stroke-width="1" stroke-linecap="butt" stroke-linejoin="miter" stroke="rgb(0%, 0%, 0%)" stroke-opacity="1" stroke-miterlimit="2" d="M 290.460938 131.265625 L 290.460938 124.949219 L 284.144531 124.949219 L 284.144531 131.265625 Z M 290.460938 131.265625 "/>
<path fill="none" stroke-width="1" stroke-linecap="butt" stroke-linejoin="miter" stroke="rgb(0%, 0%, 0%)" stroke-opacity="1" stroke-miterlimit="2" d="M 307.390625 135.179688 L 307.390625 128.863281 L 301.074219 128.863281 L 301.074219 135.179688 Z M 307.390625 135.179688 "/>
<path fill="none" stroke-width="1" stroke-linecap="butt" stroke-linejoin="miter" stroke="rgb(0%, 0%, 0%)" stroke-opacity="1" stroke-miterlimit="2" d="M 324.320312 138.539062 L 324.320312 132.222656 L 318.003906 132.222656 L 318.003906 138.539062 Z M 324.320312 138.539062 "/>
<path fill="none" stroke-width="1" stroke-linecap="butt" stroke-linejoin="miter" stroke="rgb(0%, 0%, 0%)" stroke-opacity="1" stroke-miterlimit="2" d="M 341.25 141.148438 L 341.25 134.835938 L 334.933594 134.835938 L 334.933594 141.148438 Z M 341.25 141.148438 "/>
<path fill="none" stroke-width="1" stroke-linecap="butt" stroke-linejoin="miter" stroke="rgb(0%, 0%, 0%)" stroke-opacity="1" stroke-miterlimit="2" d="M 358.179688 142.886719 L 358.179688 136.574219 L 351.863281 136.574219 L 351.863281 142.886719 Z M 358.179688 142.886719 "/>
<path fill="none" stroke-width="1" stroke-linecap="butt" stroke-linejoin="miter" stroke="rgb(0%, 0%, 0%)" stroke-opacity="1" stroke-miterlimit="2" d="M 375.109375 143.703125 L 375.109375 137.390625 L 368.796875 137.390625 L 368.796875 143.703125 Z M 375.109375 143.703125 "/>
<path fill="none" stroke-width="1" stroke-linecap="butt" stroke-linejoin="miter" stroke="rgb(0%, 0%, 0%)" stroke-opacity="1" stroke-miterlimit="2" d="M 392.039062 143.625 L 392.039062 137.3125 L 385.726562 137.3125 L 385.726562 143.625 Z M 392.039062 143.625 "/>
<path fill="none" stroke-width="1" stroke-linecap="butt" stroke-linejoin="miter" stroke="rgb(0%, 0%, 0%)" stroke-opacity="1" stroke-miterlimit="2" d="M 408.96875 142.738281 L 408.96875 136.425781 L 402.65625 136.425781 L 402.65625 142.738281 Z M 408.96875 142.738281 "/>
<path fill="none" stroke-width="1" stroke-linecap="butt" stroke-linejoin="miter" stroke="rgb(0%, 0%, 0%)" stroke-opacity="1" stroke-miterlimit="2" d="M 425.898438 141.191406 L 425.898438 134.875 L 419.585938 134.875 L 419.585938 141.191406 Z M 425.898438 141.191406 "/>
<path fill="none" stroke-width="1" stroke-linecap="butt" stroke-linejoin="miter" stroke="rgb(0%, 0%, 0%)" stroke-opacity="1" stroke-miterlimit="2" d="M 442.828125 139.164062 L 442.828125 132.847656 L 436.515625 132.847656 L 436.515625 139.164062 Z M 442.828125 139.164062 "/>
<path fill="none" stroke-width="1" stroke-linecap="butt" stroke-linejoin="miter" stroke="rgb(0%, 0%, 0%)" stroke-opacity="1" stroke-miterlimit="2" d="M 459.757812 136.859375 L 459.757812 130.546875 L 453.445312 130.546875 L 453.445312 136.859375 Z M 459.757812 136.859375 "/>
<path fill="none" stroke-width="1" stroke-linecap="butt" stroke-linejoin="miter" stroke="rgb(0%, 0%, 0%)" stroke-opacity="1" stroke-miterlimit="2" d="M 476.6875 134.496094 L 476.6875 128.183594 L 470.375 128.183594 L 470.375 134.496094 Z M 476.6875 134.496094 "/>
<path fill="none" stroke-width="1" stroke-linecap="butt" stroke-linejoin="miter" stroke="rgb(0%, 0%, 0%)" stroke-opacity="1" stroke-miterlimit="2" d="M 493.621094 132.273438 L 493.621094 125.960938 L 487.304688 125.960938 L 487.304688 132.273438 Z M 493.621094 132.273438 "/>
<path fill="none" stroke-width="1" stroke-linecap="butt" stroke-linejoin="miter" stroke="rgb(0%, 0%, 0%)" stroke-opacity="1" stroke-miterlimit="2" d="M 510.550781 130.363281 L 510.550781 124.050781 L 504.234375 124.050781 L 504.234375 130.363281 Z M 510.550781 130.363281 "/>
<path fill="none" stroke-width="1" stroke-linecap="butt" stroke-linejoin="miter" stroke="rgb(0%, 0%, 0%)" stroke-opacity="1" stroke-miterlimit="2" d="M 527.480469 128.90625 L 527.480469 122.59375 L 521.164062 122.59375 L 521.164062 128.90625 Z M 527.480469 128.90625 "/>
<path fill="none" stroke-width="1" stroke-linecap="butt" stroke-linejoin="miter" stroke="rgb(0%, 0%, 0%)" stroke-opacity="1" stroke-miterlimit="2" d="M 544.410156 127.996094 L 544.410156 121.679688 L 538.09375 121.679688 L 538.09375 127.996094 Z M 544.410156 127.996094 "/>
<path fill="none" stroke-width="1" stroke-linecap="butt" stroke-linejoin="miter" stroke="rgb(0%, 0%, 0%)" stroke-opacity="1" stroke-miterlimit="2" d="M 561.339844 127.667969 L 561.339844 121.351562 L 555.023438 121.351562 L 555.023438 127.667969 Z M 561.339844 127.667969 "/>
<path fill="none" stroke-width="1.5" stroke-linecap="butt" stroke-linejoin="miter" stroke="rgb(0%, 0%, 0%)" stroke-opacity="1" stroke-miterlimit="2" d="M 81.320312 145.957031 L 476.355469 145.957031 "/>
<path fill="none" stroke-width="1.5" stroke-linecap="butt" stroke-linejoin="miter" stroke="rgb(62.352943%, 0.392157%, 38.431373%)" stroke-opacity="1" stroke-dasharray="4.5 4.5" stroke-miterlimit="1.154701" d="M 81.320312 273.199219 L 81.320312 145.957031 "/>
<path fill="none" stroke-width="1.5" stroke-linecap="butt" stroke-linejoin="miter" stroke="rgb(57.14286%, 46.890756%, 60.896361%)" stroke-opacity="1" stroke-dasharray="4.5 4.5" stroke-miterlimit="1.154701" d="M 137.753906 254.058594 L 137.753906 145.957031 "/>
<path fill="none" stroke-width="1.5" stroke-linecap="butt" stroke-linejoin="miter" stroke="rgb(7.394958%, 84.705883%, 81.064427%)" stroke-opacity="1" stroke-dasharray="4.5 4.5" stroke-miterlimit="1.154701" d="M 194.1875 92.050781 L 194.1875 145.957031 "/>
<path fill="none" stroke-width="1.5" stroke-linecap="butt" stroke-linejoin="miter" stroke="rgb(14.789917%, 39.495799%, 92.717087%)" stroke-opacity="1" stroke-dasharray="4.5 4.5" stroke-miterlimit="1.154701" d="M 250.621094 156.546875 L 250.621094 145.957031 "/>
<path fill="none" stroke-width="1.5" stroke-linecap="butt" stroke-linejoin="miter" stroke="rgb(28.57143%, 74.285716%, 98.095238%)" stroke-opacity="1" stroke-dasharray="4.5 4.5" stroke-miterlimit="1.154701" d="M 307.054688 204.070312 L 307.054688 145.957031 "/>
<path fill="none" stroke-width="1.5" stroke-linecap="butt" stroke-linejoin="miter" stroke="rgb(69.411767%, 10.308123%, 25.602242%)" stroke-opacity="1" stroke-dasharray="4.5 4.5" stroke-miterlimit="1.154701" d="M 363.488281 32.726562 L 363.488281 145.957031 "/>
<path fill="none" stroke-width="1.5" stroke-linecap="butt" stroke-linejoin="miter" stroke="rgb(93.501401%, 18.711485%, 21.40056%)" stroke-opacity="1" stroke-dasharray="4.5 4.5" stroke-miterlimit="1.154701" d="M 419.921875 166.214844 L 419.921875 145.957031 "/>
<path fill="none" stroke-width="1.5" stroke-linecap="butt" stroke-linejoin="miter" stroke="rgb(100%, 76.47059%, 23.137255%)" stroke-opacity="1" stroke-dasharray="4.5 4.5" stroke-miterlimit="1.154701" d="M 476.355469 367.273438 L 476.355469 145.957031 "/>
<path fill-rule="nonzero" fill="rgb(62.352943%, 0.392157%, 38.431373%)" fill-opacity="0.65" stroke-width="1.5" stroke-linecap="butt" stroke-linejoin="miter" stroke="rgb(62.352943%, 0.392157%, 38.431373%)" stroke-opacity="1" stroke-miterlimit="2" d="M 87.589844 273.199219 C 87.589844 269.738281 84.78125 266.933594 81.320312 266.933594 C 77.859375 266.933594 75.054688 269.738281 75.054688 273.199219 C 75.054688 276.660156 77.859375 279.464844 81.320312 279.464844 C 84.78125 279.464844 87.589844 276.660156 87.589844 273.199219 Z M 87.589844 273.199219 "/>
<path fill-rule="nonzero" fill="rgb(57.14286%, 46.890756%, 60.896361%)" fill-opacity="0.65" stroke-width="1.5" stroke-linecap="butt" stroke-linejoin="miter" stroke="rgb(57.14286%, 46.890756%, 60.896361%)" stroke-opacity="1" stroke-miterlimit="2" d="M 143.421875 259.726562 L 143.421875 248.386719 L 132.085938 248.386719 L 132.085938 259.726562 Z M 143.421875 259.726562 "/>
<path fill-rule="nonzero" fill="rgb(7.394958%, 84.705883%, 81.064427%)" fill-opacity="0.65" stroke-width="1.5" stroke-linecap="butt" stroke-linejoin="miter" stroke="rgb(7.394958%, 84.705883%, 81.064427%)" stroke-opacity="1" stroke-miterlimit="2" d="M 194.1875 83.050781 L 187.4375 96.546875 L 200.9375 96.546875 Z M 194.1875 83.050781 "/>
<path fill-rule="nonzero" fill="rgb(14.789917%, 39.495799%, 92.717087%)" fill-opacity="0.65" stroke-width="1.5" stroke-linecap="butt" stroke-linejoin="miter" stroke="rgb(14.789917%, 39.495799%, 92.717087%)" stroke-opacity="1" stroke-miterlimit="2" d="M 250.621094 165.1875 L 257.101562 152.230469 L 244.140625 152.230469 Z M 250.621094 165.1875 "/>
<path fill-rule="nonzero" fill="rgb(28.57143%, 74.285716%, 98.095238%)" fill-opacity="0.65" stroke-width="1.5" stroke-linecap="butt" stroke-linejoin="miter" stroke="rgb(28.57143%, 74.285716%, 98.095238%)" stroke-opacity="1" stroke-miterlimit="2" d="M 313.195312 204.070312 L 307.054688 197.929688 L 300.914062 204.070312 L 307.054688 210.214844 Z M 313.195312 204.070312 "/>
<path fill-rule="nonzero" fill="rgb(69.411767%, 10.308123%, 25.602242%)" fill-opacity="0.65" stroke-width="1.5" stroke-linecap="butt" stroke-linejoin="miter" stroke="rgb(69.411767%, 10.308123%, 25.602242%)" stroke-opacity="1" stroke-miterlimit="2" d="M 363.488281 28.050781 L 359.039062 31.28125 L 360.738281 36.511719 L 366.234375 36.511719 L 367.933594 31.28125 Z M 363.488281 28.050781 "/>
<path fill-rule="nonzero" fill="rgb(93.501401%, 18.711485%, 21.40056%)" fill-opacity="0.65" stroke-width="1.5" stroke-linecap="butt" stroke-linejoin="miter" stroke="rgb(93.501401%, 18.711485%, 21.40056%)" stroke-opacity="1" stroke-miterlimit="2" d="M 421.269531 162.148438 L 421.269531 164.863281 L 423.988281 164.863281 L 423.988281 167.5625 L 421.269531 167.5625 L 421.269531 170.277344 L 418.570312 170.277344 L 418.570312 167.5625 L 415.855469 167.5625 L 415.855469 164.863281 L 418.570312 164.863281 L 418.570312 162.148438 Z M 421.269531 162.148438 "/>
<path fill-rule="nonzero" fill="rgb(100%, 76.47059%, 23.137255%)" fill-opacity="0.65" stroke-width="1.5" stroke-linecap="butt" stroke-linejoin="miter" stroke="rgb(100%, 76.47059%, 23.137255%)" stroke-opacity="1" stroke-miterlimit="2" d="M 473.933594 362.449219 L 476.355469 364.867188 L 478.773438 362.449219 L 481.179688 364.851562 L 478.757812 367.273438 L 481.179688 369.691406 L 478.773438 372.097656 L 476.355469 369.679688 L 473.933594 372.097656 L 471.527344 369.691406 L 473.949219 367.273438 L 471.527344 364.851562 Z M 473.933594 362.449219 "/>
</svg>
