<?xml version="1.0" encoding="UTF-8"?>
<svg xmlns="http://www.w3.org/2000/svg" xmlns:xlink="http://www.w3.org/1999/xlink" width="450pt" height="300pt" viewBox="0 0 450 300" version="1.1">
<g id="surface1-025c14b2">
<rect x="0" y="0" width="450" height="300" style="fill:rgb(100%,100%,100%);fill-opacity:1;stroke:none;"/>
<path style="fill:none;stroke-width:1;stroke-linecap:butt;stroke-linejoin:miter;stroke:rgb(0%,0%,0%);stroke-opacity:0.07;stroke-miterlimit:2;" d="M 193.614583 384 L 193.614583 16 " transform="matrix(0.75,0,0,0.75,0,0)"/>
<path style="fill:none;stroke-width:1;stroke-linecap:butt;stroke-linejoin:miter;stroke:rgb(0%,0%,0%);stroke-opacity:0.07;stroke-miterlimit:2;" d="M 297.375 384 L 297.375 16 " transform="matrix(0.75,0,0,0.75,0,0)"/>
<path style="fill:none;stroke-width:1;stroke-linecap:butt;stroke-linejoin:miter;stroke:rgb(0%,0%,0%);stroke-opacity:0.07;stroke-miterlimit:2;" d="M 401.135417 384 L 401.135417 16 " transform="matrix(0.75,0,0,0.75,0,0)"/>
<path style="fill:none;stroke-width:1;stroke-linecap:butt;stroke-linejoin:miter;stroke:rgb(0%,0%,0%);stroke-opacity:0.07;stroke-miterlimit:2;" d="M 129 314.4375 L 471 314.4375 " transform="matrix(0.75,0,0,0.75,0,0)"/>
<path style="fill:none;stroke-width:1;stroke-linecap:butt;stroke-linejoin:miter;stroke:rgb(0%,0%,0%);stroke-opacity:0.07;stroke-miterlimit:2;" d="M 129 210.645833 L 471 210.645833 " transform="matrix(0.75,0,0,0.75,0,0)"/>
<path style="fill:none;stroke-width:1;stroke-linecap:butt;stroke-linejoin:miter;stroke:rgb(0%,0%,0%);stroke-opacity:0.07;stroke-miterlimit:2;" d="M 129 106.854167 L 471 106.854167 " transform="matrix(0.75,0,0,0.75,0,0)"/>
<path style=" stroke:none;fill-rule:evenodd;fill:rgb(33.333334%,12.156863%,0%);fill-opacity:1;" d="M 300.851562 202.925781 L 145.210938 202.925781 L 223.03125 68.097656 Z M 300.851562 202.925781 "/>
<path style=" stroke:none;fill-rule:evenodd;fill:rgb(46.412918%,14.740485%,0%);fill-opacity:1;" d="M 281.394531 157.984375 L 223.03125 216.367188 L 164.664062 157.984375 L 223.03125 99.601562 Z M 281.394531 157.984375 "/>
<path style=" stroke:none;fill-rule:evenodd;fill:rgb(59.492505%,17.324106%,0%);fill-opacity:1;" d="M 262.75 145.074219 L 247.578125 191.78125 L 198.484375 191.78125 L 183.3125 145.074219 L 223.03125 116.210938 Z M 262.75 145.074219 "/>
<path style=" stroke:none;fill-rule:evenodd;fill:rgb(70.357555%,25.074971%,0%);fill-opacity:1;" d="M 250.542969 142.09375 L 250.542969 173.875 L 223.03125 189.761719 L 195.515625 173.875 L 195.515625 142.09375 L 223.03125 126.203125 Z M 250.542969 142.09375 "/>
<path style=" stroke:none;fill-rule:evenodd;fill:rgb(79.561704%,36.701268%,0%);fill-opacity:1;" d="M 242.742188 142.261719 L 247.609375 163.59375 L 233.96875 180.707031 L 212.089844 180.707031 L 198.449219 163.59375 L 203.320312 142.261719 L 223.03125 132.765625 Z M 242.742188 142.261719 "/>
<path style=" stroke:none;fill-rule:evenodd;fill:rgb(87.958479%,48.119953%,1.522491%);fill-opacity:1;" d="M 237.621094 143.386719 L 243.664062 157.984375 L 237.621094 172.578125 L 223.03125 178.625 L 208.4375 172.578125 L 202.394531 157.984375 L 208.4375 143.386719 L 223.03125 137.34375 Z M 237.621094 143.386719 "/>
<path style=" stroke:none;fill-rule:evenodd;fill:rgb(91.510957%,58.292967%,12.179931%);fill-opacity:1;" d="M 234.144531 144.734375 L 240.0625 154.980469 L 238.007812 166.632812 L 228.945312 174.238281 L 217.117188 174.238281 L 208.054688 166.632812 L 206 154.980469 L 211.914062 144.734375 L 223.03125 140.6875 Z M 234.144531 144.734375 "/>
<path style=" stroke:none;fill-rule:evenodd;fill:rgb(95.063436%,68.465972%,22.837371%);fill-opacity:1;" d="M 231.710938 146.035156 L 237.074219 153.421875 L 237.074219 162.546875 L 231.710938 169.933594 L 223.03125 172.753906 L 214.351562 169.933594 L 208.988281 162.546875 L 208.988281 153.421875 L 214.351562 146.035156 L 223.03125 143.214844 Z M 231.710938 146.035156 "/>
<path style=" stroke:none;fill-rule:evenodd;fill:rgb(97.231835%,78.177625%,32.226068%);fill-opacity:1;" d="M 229.949219 147.214844 L 234.671875 152.664062 L 235.699219 159.804688 L 232.703125 166.367188 L 226.636719 170.265625 L 219.425781 170.265625 L 213.359375 166.367188 L 210.363281 159.804688 L 211.386719 152.664062 L 216.109375 147.214844 L 223.03125 145.183594 Z M 229.949219 147.214844 "/>
<path style=" stroke:none;fill-rule:evenodd;fill:rgb(98.846596%,87.70473%,41.107267%);fill-opacity:1;" d="M 228.644531 148.253906 L 232.757812 152.367188 L 234.261719 157.984375 L 232.757812 163.601562 L 228.644531 167.714844 L 223.03125 169.21875 L 217.414062 167.714844 L 213.304688 163.601562 L 211.796875 157.984375 L 213.304688 152.367188 L 217.414062 148.253906 L 223.03125 146.75 Z M 228.644531 148.253906 "/>
<path style=" stroke:none;fill-rule:evenodd;fill:rgb(97.231835%,94.648212%,53.217995%);fill-opacity:1;" d="M 227.660156 149.160156 L 231.226562 152.324219 L 232.917969 156.78125 L 232.34375 161.515625 L 229.636719 165.441406 L 225.414062 167.660156 L 220.644531 167.660156 L 216.425781 165.441406 L 213.714844 161.515625 L 213.140625 156.78125 L 214.832031 152.324219 L 218.402344 149.160156 L 223.03125 148.019531 Z M 227.660156 149.160156 "/>
<path style=" stroke:none;fill-rule:evenodd;fill:rgb(87.543255%,95.132643%,73.402536%);fill-opacity:1;" d="M 226.898438 149.949219 L 230 152.425781 L 231.71875 156 L 231.71875 159.96875 L 230 163.542969 L 226.898438 166.015625 L 223.03125 166.898438 L 219.164062 166.015625 L 216.0625 163.542969 L 214.339844 159.96875 L 214.339844 156 L 216.0625 152.425781 L 219.164062 149.949219 L 223.03125 149.066406 Z M 226.898438 149.949219 "/>
<path style=" stroke:none;fill-rule:evenodd;fill:rgb(77.854669%,95.617068%,93.587083%);fill-opacity:1;" d="M 226.300781 150.640625 L 229.003906 152.605469 L 230.675781 155.5 L 231.023438 158.824219 L 229.992188 162.003906 L 227.753906 164.488281 L 224.703125 165.847656 L 221.359375 165.847656 L 218.304688 164.488281 L 216.070312 162.003906 L 215.039062 158.824219 L 215.386719 155.5 L 217.058594 152.605469 L 219.761719 150.640625 L 223.03125 149.945312 Z M 226.300781 150.640625 "/>
<path style=" stroke:none;fill-rule:evenodd;fill:rgb(64.152247%,91.395617%,94.532871%);fill-opacity:1;" d="M 225.820312 151.242188 L 228.1875 152.824219 L 229.769531 155.191406 L 230.324219 157.984375 L 229.769531 160.777344 L 228.1875 163.144531 L 225.820312 164.726562 L 223.03125 165.28125 L 220.238281 164.726562 L 217.871094 163.144531 L 216.289062 160.777344 L 215.734375 157.984375 L 216.289062 155.191406 L 217.871094 152.824219 L 220.238281 151.242188 L 223.03125 150.6875 Z M 225.820312 151.242188 "/>
<path style=" stroke:none;fill-rule:evenodd;fill:rgb(49.780855%,86.389852%,92.272204%);fill-opacity:1;" d="M 225.4375 151.769531 L 227.519531 153.058594 L 228.992188 155.015625 L 229.664062 157.371094 L 229.4375 159.808594 L 228.347656 162 L 226.535156 163.648438 L 224.253906 164.535156 L 221.804688 164.535156 L 219.523438 163.648438 L 217.714844 162 L 216.625 159.808594 L 216.398438 157.371094 L 217.066406 155.015625 L 218.542969 153.058594 L 220.625 151.769531 L 223.03125 151.320312 Z M 225.4375 151.769531 "/>
<path style=" stroke:none;fill-rule:evenodd;fill:rgb(37.693194%,81.107265%,90.011531%);fill-opacity:1;" d="M 225.121094 152.238281 L 226.960938 153.300781 L 228.324219 154.925781 L 229.050781 156.921875 L 229.050781 159.046875 L 228.324219 161.042969 L 226.960938 162.667969 L 225.121094 163.730469 L 223.03125 164.101562 L 220.9375 163.730469 L 219.101562 162.667969 L 217.734375 161.042969 L 217.007812 159.046875 L 217.007812 156.921875 L 217.734375 154.925781 L 219.101562 153.300781 L 220.9375 152.238281 L 223.03125 151.867188 Z M 225.121094 152.238281 "/>
<path style=" stroke:none;fill-rule:evenodd;fill:rgb(28.650519%,75.455594%,87.750864%);fill-opacity:1;" d="M 224.859375 152.648438 L 226.492188 153.535156 L 227.75 154.898438 L 228.496094 156.597656 L 228.648438 158.449219 L 228.191406 160.25 L 227.179688 161.804688 L 225.714844 162.945312 L 223.957031 163.546875 L 222.101562 163.546875 L 220.347656 162.945312 L 218.882812 161.804688 L 217.867188 160.25 L 217.410156 158.449219 L 217.566406 156.597656 L 218.308594 154.898438 L 219.566406 153.535156 L 221.199219 152.648438 L 223.03125 152.34375 Z M 224.859375 152.648438 "/>
<path style=" stroke:none;fill-rule:evenodd;fill:rgb(19.607843%,69.803923%,85.490197%);fill-opacity:1;" d="M 224.644531 153.019531 L 226.097656 153.757812 L 227.253906 154.914062 L 227.996094 156.371094 L 228.25 157.984375 L 227.996094 159.597656 L 227.253906 161.054688 L 226.097656 162.207031 L 224.644531 162.949219 L 223.03125 163.207031 L 221.417969 162.949219 L 219.960938 162.207031 L 218.808594 161.054688 L 218.066406 159.597656 L 217.808594 157.984375 L 218.066406 156.371094 L 218.808594 154.914062 L 219.960938 153.757812 L 221.417969 153.019531 L 223.03125 152.761719 Z M 224.644531 153.019531 "/>
<path style=" stroke:none;fill-rule:evenodd;fill:rgb(33.333334%,12.156863%,0%);fill-opacity:1;" d="M 243.25 59.574219 L 202.8125 59.574219 L 223.03125 24.546875 Z M 243.25 59.574219 "/>
<path style=" stroke:none;fill-rule:evenodd;fill:rgb(46.412918%,14.740485%,0%);fill-opacity:1;" d="M 277.179688 54.539062 L 260.671875 71.050781 L 244.164062 54.539062 L 260.671875 38.023438 Z M 277.179688 54.539062 "/>
<path style=" stroke:none;fill-rule:evenodd;fill:rgb(59.492505%,17.324106%,0%);fill-opacity:1;" d="M 306.589844 69.488281 L 301.695312 84.5625 L 285.847656 84.5625 L 280.953125 69.488281 L 293.769531 60.171875 Z M 306.589844 69.488281 "/>
<path style=" stroke:none;fill-rule:evenodd;fill:rgb(70.357555%,25.074971%,0%);fill-opacity:1;" d="M 328.449219 97.101562 L 328.449219 108.777344 L 318.339844 114.617188 L 308.230469 108.777344 L 308.230469 97.101562 L 318.339844 91.265625 Z M 328.449219 97.101562 "/>
<path style=" stroke:none;fill-rule:evenodd;fill:rgb(79.561704%,36.701268%,0%);fill-opacity:1;" d="M 339.574219 132.355469 L 341.589844 141.191406 L 335.941406 148.277344 L 326.882812 148.277344 L 321.234375 141.191406 L 323.25 132.355469 L 331.410156 128.425781 Z M 339.574219 132.355469 "/>
<path style=" stroke:none;fill-rule:evenodd;fill:rgb(87.958479%,48.119953%,1.522491%);fill-opacity:1;" d="M 338.152344 170.359375 L 340.941406 177.101562 L 338.152344 183.839844 L 331.410156 186.632812 L 324.671875 183.839844 L 321.882812 177.101562 L 324.671875 170.359375 L 331.410156 167.566406 Z M 338.152344 170.359375 "/>
<path style=" stroke:none;fill-rule:evenodd;fill:rgb(91.510957%,58.292967%,12.179931%);fill-opacity:1;" d="M 324.011719 206.265625 L 327.03125 211.496094 L 325.980469 217.441406 L 321.359375 221.320312 L 315.320312 221.320312 L 310.699219 217.441406 L 309.648438 211.496094 L 312.667969 206.265625 L 318.339844 204.199219 Z M 324.011719 206.265625 "/>
<path style=" stroke:none;fill-rule:evenodd;fill:rgb(95.063436%,68.465972%,22.837371%);fill-opacity:1;" d="M 298.621094 235.636719 L 301.621094 239.761719 L 301.621094 244.867188 L 298.621094 248.996094 L 293.769531 250.570312 L 288.917969 248.996094 L 285.921875 244.867188 L 285.921875 239.761719 L 288.917969 235.636719 L 293.769531 234.058594 Z M 298.621094 235.636719 "/>
<path style=" stroke:none;fill-rule:evenodd;fill:rgb(97.231835%,78.177625%,32.226068%);fill-opacity:1;" d="M 264.878906 254.882812 L 267.75 258.195312 L 268.375 262.539062 L 266.550781 266.527344 L 262.863281 268.898438 L 258.476562 268.898438 L 254.789062 266.527344 L 252.96875 262.539062 L 253.59375 258.195312 L 256.464844 254.882812 L 260.671875 253.648438 Z M 264.878906 254.882812 "/>
<path style=" stroke:none;fill-rule:evenodd;fill:rgb(98.846596%,87.70473%,41.107267%);fill-opacity:1;" d="M 226.722656 261.675781 L 229.421875 264.378906 L 230.414062 268.070312 L 229.421875 271.761719 L 226.722656 274.464844 L 223.03125 275.453125 L 219.339844 274.464844 L 216.636719 271.761719 L 215.648438 268.070312 L 216.636719 264.378906 L 219.339844 261.675781 L 223.03125 260.683594 Z M 226.722656 261.675781 "/>
<path style=" stroke:none;fill-rule:evenodd;fill:rgb(97.231835%,94.648212%,53.217995%);fill-opacity:1;" d="M 188.660156 255.195312 L 191.183594 257.429688 L 192.378906 260.582031 L 191.972656 263.925781 L 190.058594 266.699219 L 187.074219 268.265625 L 183.707031 268.265625 L 180.722656 266.699219 L 178.808594 263.925781 L 178.402344 260.582031 L 179.597656 257.429688 L 182.117188 255.195312 L 185.390625 254.390625 Z M 188.660156 255.195312 "/>
<path style=" stroke:none;fill-rule:evenodd;fill:rgb(87.543255%,95.132643%,73.402536%);fill-opacity:1;" d="M 155.214844 236.242188 L 157.558594 238.113281 L 158.859375 240.816406 L 158.859375 243.816406 L 157.558594 246.519531 L 155.214844 248.386719 L 152.289062 249.054688 L 149.363281 248.386719 L 147.019531 246.519531 L 145.71875 243.816406 L 145.71875 240.816406 L 147.019531 238.113281 L 149.363281 236.242188 L 152.289062 235.574219 Z M 155.214844 236.242188 "/>
<path style=" stroke:none;fill-rule:evenodd;fill:rgb(77.854669%,95.617068%,93.587083%);fill-opacity:1;" d="M 130.355469 207.109375 L 132.53125 208.691406 L 133.878906 211.023438 L 134.160156 213.703125 L 133.328125 216.265625 L 131.527344 218.265625 L 129.066406 219.363281 L 126.375 219.363281 L 123.914062 218.265625 L 122.113281 216.265625 L 121.28125 213.703125 L 121.5625 211.023438 L 122.910156 208.691406 L 125.085938 207.109375 L 127.722656 206.550781 Z M 130.355469 207.109375 "/>
<path style=" stroke:none;fill-rule:evenodd;fill:rgb(64.152247%,91.395617%,94.532871%);fill-opacity:1;" d="M 117.035156 171.335938 L 119.058594 172.6875 L 120.414062 174.710938 L 120.886719 177.101562 L 120.414062 179.488281 L 119.058594 181.511719 L 117.035156 182.867188 L 114.648438 183.339844 L 112.261719 182.867188 L 110.238281 181.511719 L 108.882812 179.488281 L 108.410156 177.101562 L 108.882812 174.710938 L 110.238281 172.6875 L 112.261719 171.335938 L 114.648438 170.859375 Z M 117.035156 171.335938 "/>
<path style=" stroke:none;fill-rule:evenodd;fill:rgb(49.780855%,86.389852%,92.272204%);fill-opacity:1;" d="M 116.824219 133.246094 L 118.710938 134.410156 L 120.042969 136.179688 L 120.652344 138.3125 L 120.445312 140.519531 L 119.457031 142.5 L 117.820312 143.996094 L 115.757812 144.792969 L 113.539062 144.792969 L 111.476562 143.996094 L 109.839844 142.5 L 108.851562 140.519531 L 108.644531 138.3125 L 109.253906 136.179688 L 110.585938 134.410156 L 112.472656 133.246094 L 114.648438 132.839844 Z M 116.824219 133.246094 "/>
<path style=" stroke:none;fill-rule:evenodd;fill:rgb(37.693194%,81.107265%,90.011531%);fill-opacity:1;" d="M 129.71875 97.453125 L 131.472656 98.46875 L 132.777344 100.023438 L 133.46875 101.925781 L 133.46875 103.953125 L 132.777344 105.859375 L 131.472656 107.414062 L 129.71875 108.425781 L 127.722656 108.777344 L 125.726562 108.425781 L 123.96875 107.414062 L 122.667969 105.859375 L 121.972656 103.953125 L 121.972656 101.925781 L 122.667969 100.023438 L 123.96875 98.46875 L 125.726562 97.453125 L 127.722656 97.101562 Z M 129.71875 97.453125 "/>
<path style=" stroke:none;fill-rule:evenodd;fill:rgb(28.650519%,75.455594%,87.750864%);fill-opacity:1;" d="M 154.128906 68.296875 L 155.765625 69.183594 L 157.03125 70.554688 L 157.777344 72.261719 L 157.933594 74.121094 L 157.472656 75.929688 L 156.453125 77.488281 L 154.984375 78.632812 L 153.222656 79.238281 L 151.355469 79.238281 L 149.59375 78.632812 L 148.125 77.488281 L 147.105469 75.929688 L 146.644531 74.121094 L 146.800781 72.261719 L 147.550781 70.554688 L 148.8125 69.183594 L 150.449219 68.296875 L 152.289062 67.988281 Z M 154.128906 68.296875 "/>
<path style=" stroke:none;fill-rule:evenodd;fill:rgb(19.607843%,69.803923%,85.490197%);fill-opacity:1;" d="M 187.089844 49.300781 L 188.625 50.085938 L 189.839844 51.300781 L 190.625 52.835938 L 190.890625 54.539062 L 190.625 56.238281 L 189.839844 57.773438 L 188.625 58.988281 L 187.089844 59.773438 L 185.390625 60.042969 L 183.6875 59.773438 L 182.15625 58.988281 L 180.9375 57.773438 L 180.15625 56.238281 L 179.886719 54.539062 L 180.15625 52.835938 L 180.9375 51.300781 L 182.15625 50.085938 L 183.6875 49.300781 L 185.390625 49.03125 Z M 187.089844 49.300781 "/>
</g>
</svg>
